<?xml version="1.0" encoding="utf-8"?>
<!-- Generator: Adobe Illustrator 26.0.2, SVG Export Plug-In . SVG Version: 6.00 Build 0)  -->
<svg version="1.1" xmlns="http://www.w3.org/2000/svg" xmlns:xlink="http://www.w3.org/1999/xlink" x="0px" y="0px"
	 viewBox="0 0 85 20.6" style="enable-background:new 0 0 85 20.6;" xml:space="preserve">
<style type="text/css">
	.st0{fill:#E8EBF6;}
</style>
<g id="Capa_1">
	<g>
		<g>
			<path class="st0" d="M2.7,16.5l1.4-3.8l1.3,3.8H2.7z M6.8,20.4h1.3l-3.3-9.1H3.5L0,20.4h1.3l1-2.8h3.5L6.8,20.4z M12.9,18.4
				c0,0.7-0.6,1.1-1.6,1.1c-0.8,0-1.4-0.2-1.7-0.8L8.3,19c0.5,1,1.5,1.5,2.9,1.5c1.9,0,2.9-1.1,2.9-2.2c0-1.4-1.3-1.8-2.9-2.2
				c-0.7-0.1-1.6-0.4-1.6-1.1c0-0.5,0.5-1,1.4-1c0.9,0,1.5,0.6,1.6,0.9l1.1-0.5c-0.5-0.9-1.5-1.3-2.5-1.3c-1.6,0-2.7,0.8-2.7,2.1
				c0,1.4,1.2,1.7,2.4,2C11.9,17.4,12.9,17.6,12.9,18.4 M16.7,11.2l-1.2,0.5v1.7h-1.1v1h1.1v4.5c0,0.9,0,1.6,1.3,1.6
				c0.4,0,0.9-0.1,1.1-0.1v-1c-0.2,0.1-0.5,0.2-0.8,0.2c-0.5,0-0.5-0.4-0.5-1.2v-3.9h1.3v-1h-1.3V11.2z M19,13.4v7h1.2v-3.2
				c0-0.6,0-1.3,0.3-1.8c0.4-0.6,0.9-0.9,2.1-0.9v-1.2c-0.5,0-1.7,0-2.4,1.4v-1.2H19z M29.4,11.2v1.1h5.2l-5.2,6.8v1.2h6.7v-1.1
				h-5.3l5.2-6.9v-1.1H29.4z M43.5,13.4v7h1.2v-3.9c0-0.5,0-1,0.5-1.6c0.4-0.4,0.8-0.5,1.3-0.5c0.6,0,1.3,0.3,1.5,1
				c0.1,0.2,0.1,0.4,0.1,1.1v3.9h1.2v-4.1c0-0.6,0-1-0.1-1.4c-0.3-1.1-1.4-1.6-2.3-1.6c-0.4,0-1.5,0.1-2.2,1.2v-1.1H43.5z
				 M61.6,18.7c-0.2,0.5-0.7,0.9-1.6,0.9c-0.8,0-2.1-0.5-2.1-2.8c0-0.6,0.1-2.8,2-2.8c1,0,1.4,0.5,1.6,1l1.1-0.5
				c-0.7-1.1-1.9-1.4-2.8-1.4c-2.2,0-3.3,1.8-3.3,3.7c0,1.7,0.9,3.6,3.4,3.6c1.4,0,2.2-0.7,2.7-1.4L61.6,18.7z M37.8,16.2h3.7
				c-0.1-1.8-1.2-2.1-1.9-2.1C38.7,14,38,14.8,37.8,16.2 M42.5,19c-0.4,0.7-1.2,1.5-2.7,1.5c-2.1,0-3.2-1.4-3.2-3.7
				c0-2.6,1.7-3.6,3.2-3.6c1.3,0,2.5,0.7,2.9,2.5c0.1,0.6,0.1,1.1,0.1,1.4h-5c0,1.2,0.5,2.6,2.1,2.6c0.7,0,1.1-0.3,1.4-0.8L42.5,19z
				 M51.1,16.2h3.7c-0.1-1.8-1.2-2.1-1.9-2.1C51.9,14,51.2,14.8,51.1,16.2 M55.8,19c-0.4,0.7-1.2,1.5-2.7,1.5
				c-2.1,0-3.2-1.4-3.2-3.7c0-2.6,1.7-3.6,3.2-3.6c1.3,0,2.5,0.7,2.9,2.5c0.1,0.6,0.1,1.1,0.1,1.4h-5c0,1.2,0.5,2.6,2.1,2.6
				c0.7,0,1.1-0.3,1.4-0.8L55.8,19z M69,20.4l-1.2,0c0,0-0.1-0.5-0.1-1c-0.4,0.4-1,1.1-2.3,1.1c-1.4,0-2.4-0.8-2.4-2
				c0-0.4,0.1-0.7,0.3-1c0.4-0.6,1.1-1.1,3.2-1.2l1.1-0.1V16c0-0.7,0-1.9-1.6-1.9c-1,0-1.3,0.5-1.4,0.9l-1.1-0.4c0,0,0-0.1,0.1-0.1
				c0.4-0.8,1.2-1.2,2.4-1.2c0.6,0,1.5,0.2,2,0.6c0.8,0.6,0.8,1.7,0.8,1.7l0,3.6C68.8,19,68.9,20.1,69,20.4 M67.4,18.5
				c0.2-0.4,0.2-0.5,0.2-1.6c-0.5,0.1-1.1,0.2-1.8,0.3c-1.3,0.3-1.5,0.8-1.5,1.3c0,0.6,0.4,1,1.3,1C66.4,19.5,67.1,19.2,67.4,18.5
				 M28.6,20.4l-1.2,0c0,0-0.1-0.5-0.1-1c-0.4,0.4-1,1.1-2.3,1.1c-1.4,0-2.4-0.8-2.4-2c0-0.4,0.1-0.7,0.3-1c0.4-0.6,1.1-1.1,3.2-1.2
				l1.1-0.1V16c0-0.7,0-1.9-1.6-1.9c-1,0-1.3,0.5-1.4,0.9l-1.1-0.4c0,0,0-0.1,0.1-0.1c0.4-0.8,1.2-1.2,2.4-1.2c0.6,0,1.5,0.2,2,0.6
				c0.8,0.6,0.8,1.7,0.8,1.7l0,3.6C28.4,19,28.5,20.1,28.6,20.4 M27,18.5c0.2-0.4,0.2-0.5,0.2-1.6c-0.5,0.1-1.1,0.2-1.8,0.3
				c-1.3,0.3-1.5,0.8-1.5,1.3c0,0.6,0.4,1,1.3,1C26,19.5,26.7,19.2,27,18.5"/>
			<path class="st0" d="M76.6,14.5c-0.2,0.1-0.4,0.2-0.5,0.3c-2.1-1.2-6.6-3.4-7-3.6c-0.4-0.2-1.1-0.5-1.1-1.2c0.1-1,1.8-3.1,2.5-4
				c3.9-4.8,5.6-6.2,6.8-6.1c1.2,0.2,1.9,1.4,2,7.4c-0.7-0.2-1.4-0.4-2.3-0.6c-0.1-0.9-0.2-2.2-0.3-2.6c-0.1-0.5-0.2-0.7-0.4-0.7
				c-0.2,0-0.8,0.5-1.3,1c-0.2,0.2-0.9,0.9-1.6,1.6c-0.6,0-1,0.1-1.2,0.4c-0.2,0.2-0.2,0.6-0.1,1c-0.4,0.4-0.7,0.7-0.9,0.9
				c-0.8,0.8-1.7,1.5-1.7,1.8c0,0.3,0.4,0.5,1,0.9C71.9,12,75.4,13.8,76.6,14.5 M82.1,8.6c-1.4-0.5-4.8-1.7-8.3-2.2
				c-1.2-0.2-1.7,0.3-1.2,1.4c0.5,1.2,1.8,3.1,3.1,4.5c1.4,1.5,2.8,1.8,3.3-0.4c0-0.1,0-0.2,0-0.2c0.1-0.6,0.2-1.1,0.2-1.6
				c-0.6-0.3-1.3-0.6-1.9-0.8c0,0.5,0.1,1.4,0.1,2.1c0,0.1,0,0.2,0,0.3c0,1.1-0.3,1.1-1,0.6c-0.7-0.5-3-3.5-3.2-4.8
				c0-0.1,0-0.1,0.1-0.1c0,0,0,0,0.1,0c0,0,0,0,0,0c0.5,0.2,2.2,0.9,3.9,1.6c0.7,0.3,1.4,0.6,2,0.9c0.6,0.3,1.1,0.5,1.6,0.7
				c0.7,0.4,1,0.7,0.7,1c-1.5,1.6-6.9,3.8-8.8,6.5c0,0,0,0,0,0c0,0,0,0.1-0.1,0.1c0,0,0,0,0,0c-0.1,0.2-0.2,0.5-0.3,0.8
				c-0.1,0.6,0.2,1.1,1.1,1.4c0.2,0.1,0.5,0.1,0.7,0.1c0,0,0.1,0,0.2,0c1.7,0.1,6-0.9,7.3-1.4c1.4-0.6,0.9-1.2,0.6-1.5
				c-0.3-0.2-1.8-1.1-2.5-1.5c-0.2,0.1-0.3,0.2-0.5,0.3c1.2,0.8,1.7,1.1,2,1.4c0.1,0.1,0.1,0.2-0.1,0.2c0,0-0.1,0-0.1,0
				c-1.2,0.1-3.4,0.2-4.5,0.3c-0.2,0-0.3,0-0.4,0c0.3-0.2,0.6-0.5,0.7-0.6c2.2-1.6,6-3.8,7.1-4.8C84.6,12.4,86.8,10.2,82.1,8.6"/>
		</g>
	</g>
</g>
<g id="Layer_1">
</g>
<g id="Ebene_1">
</g>
<g id="Laag_1">
</g>
<g id="svg8">
</g>
<g id="Livello_1">
</g>
<g id="NIBC-Logo">
</g>
<g id="svg9194">
</g>
<g id="Calque_1">
</g>
</svg>
