<?xml version="1.0" encoding="utf-8"?>
<!-- Generator: Adobe Illustrator 26.0.2, SVG Export Plug-In . SVG Version: 6.00 Build 0)  -->
<svg version="1.1" id="Layer_1" xmlns="http://www.w3.org/2000/svg" xmlns:xlink="http://www.w3.org/1999/xlink" x="0px" y="0px"
	 viewBox="0 0 78.5 32.1" style="enable-background:new 0 0 78.5 32.1;" xml:space="preserve">
<style type="text/css">
	.st0{fill:#E7E9F4;}
</style>
<g>
	<g>
		<path class="st0" d="M34.2,10.1l-3.6,13.2h3l1.3-4.9h2.6c2.9,0,4.8-1.6,5.4-3.8c0.5-2.1-0.7-4.5-4-4.5L34.2,10.1L34.2,10.1z
			 M36.8,11.7h1.2c1.2,0,2.2,1,2,2.7c-0.2,1.6-1.9,2.5-3.4,2.5h-1.1L36.8,11.7z M65.6,14.2c-2.6,0-4.4,2.2-4.8,4.4
			c-0.4,2.1,0.8,4.9,4.1,4.9c2.4,0,3.6-1,3.6-1l-0.5-1.3c0,0-1,0.8-2.4,0.8c-1.4,0-2.3-1.1-2.1-2.8h5.7
			C69.5,18.1,69.7,14.2,65.6,14.2L65.6,14.2z M65.6,15.7c1.6,0,1.2,2.1,1.2,2.1l-3.2,0C63.6,17.8,64.1,15.7,65.6,15.7L65.6,15.7z
			 M44.1,13.9l-5,18.3h2.9L46.5,16h3l-2,7.4h2.9l2.4-8.8h-5.9c0.3-1.1,0.6-2.3,0.9-3.3c0.5-1.8,1.3-3.1,2.4-3c1.3,0,0.6,0.9,0.5,1.5
			c-0.2,0.9,0.4,1.8,1.6,1.8c2.5,0,3.1-4.6-1.6-4.6C46,6.9,44.8,11.4,44.1,13.9L44.1,13.9z"/>
		<path class="st0" d="M53.9,14.5L53.5,16h3.7l-5.8,7.4h8.2l0.4-1.5h-4.2l5.8-7.4H53.9z M76.9,14.3c-1.9,0-3,2-3,2l0.5-1.8h-2.9
			L69,23.3h2.9c0,0,0.7-2.6,1.1-3.9c0.6-2,1.7-3.3,2.2-3.3c0.6-0.1,0.6,1.4,1.8,1.4C78.8,17.6,79.2,14.3,76.9,14.3L76.9,14.3z
			 M23.7,23.3c-10.5-0.7-22.6-6-22.2-10.5l-1.4,5.3c-0.4,4.5,10.8,9.9,22.1,10.8L23.7,23.3z"/>
	</g>
</g>
<path class="st0" d="M5.3,5.6c10.5,0.7,22.6,6,22.2,10.5l1.4-5.3C29.4,6.3,18.1,0.9,6.9,0L5.3,5.6z"/>
<path class="st0" d="M27.5,16.1c-0.9,3.4-4.8,4.2-8.3,4.3c-2.9,0.1-6.2-0.3-6.2-0.3l1.5-5.6c0,0,3.3,0.4,6.2,0.3
	c3.6-0.1,7.4-0.9,8.3-4.3L27.5,16.1z"/>
<path class="st0" d="M1.5,12.9c0.9-3.4,4.8-4.2,8.3-4.3C12.8,8.5,16,8.9,16,8.9l-1.5,5.6c0,0-3.3-0.4-6.2-0.3
	c-3.6,0.1-7.4,0.9-8.3,4.3L1.5,12.9z"/>
</svg>
