<?xml version="1.0" encoding="utf-8"?>
<!-- Generator: Adobe Illustrator 26.0.2, SVG Export Plug-In . SVG Version: 6.00 Build 0)  -->
<svg version="1.1"
	 id="svg24" xmlns:cc="http://creativecommons.org/ns#" xmlns:dc="http://purl.org/dc/elements/1.1/" xmlns:inkscape="http://www.inkscape.org/namespaces/inkscape" xmlns:rdf="http://www.w3.org/1999/02/22-rdf-syntax-ns#" xmlns:sodipodi="http://sodipodi.sourceforge.net/DTD/sodipodi-0.dtd" xmlns:svg="http://www.w3.org/2000/svg"
	 xmlns="http://www.w3.org/2000/svg" xmlns:xlink="http://www.w3.org/1999/xlink" x="0px" y="0px" viewBox="0 0 100 17"
	 style="enable-background:new 0 0 100 17;" xml:space="preserve">
<style type="text/css">
	.st0{fill:#E5E4F5;}
	.st1{fill:#F0F0F9;}
</style>
<sodipodi:namedview  bordercolor="#111111" borderopacity="1" height="17px" id="namedview6" inkscape:current-layer="svg24" inkscape:cx="20.594484" inkscape:cy="10.253048" inkscape:pagecheckerboard="1" inkscape:pageopacity="0" inkscape:pageshadow="0" inkscape:window-height="878" inkscape:window-maximized="1" inkscape:window-width="1600" inkscape:window-x="-8" inkscape:window-y="-8" inkscape:zoom="11.313709" pagecolor="#ffffff" showgrid="false">
	</sodipodi:namedview>
<g id="_x23_231815ff" transform="matrix(0.41727684,0,0,0.41727684,-32.201042,10.17658)">
</g>
<g id="g126" transform="matrix(0.50794853,0,0,0.50794853,-21.821505,-1.0331417)">
	<g id="g106">
		<g id="g26">
		</g>
		<g id="g104">
		</g>
	</g>
	<g id="g124">
		<g id="g122">
			<polygon id="polygon108" class="st0" points="80.8,34.4 80.8,30.7 80.8,6.8 80.8,3.1 72.8,3.1 72.8,6.8 72.8,30.7 72.8,34.4 			
				"/>
			<path id="path110" class="st0" d="M150.7,18.8c0,5.1-1.4,9.1-4.1,12c-2.8,2.9-6.6,4.3-11.5,4.3c-4.9,0-8.8-1.4-11.5-4.3
				c-2.8-2.9-4.1-6.9-4.1-12c0-5.2,1.4-9.2,4.1-12.1c2.7-2.9,6.6-4.3,11.6-4.3c5,0,8.8,1.4,11.6,4.3
				C149.4,9.5,150.7,13.6,150.7,18.8 M143.1,18.8c0-3.3-0.7-5.9-2.1-7.8c-1.4-1.9-3.4-2.9-5.9-2.9c-2.6,0-4.5,1-5.9,2.9
				c-1.4,1.9-2.1,4.5-2.1,7.8s0.7,5.8,2.1,7.8c1.4,1.9,3.4,2.9,5.9,2.9c2.5,0,4.5-1,5.9-2.9C142.4,24.6,143.1,22,143.1,18.8"/>
			<polygon id="polygon112" class="st1" points="168,25.6 175.4,3.1 183.4,3.1 172.7,34.4 163.4,34.4 152.7,3.1 160.7,3.1 			"/>
			<path id="path114" class="st0" d="M44.1,33.9v-6.2c3.5,1.1,6.6,1.6,9.3,1.6c3.8,0,5.6-1,5.6-3c0-0.7-0.3-1.4-0.8-1.9
				c-0.6-0.5-2-1.3-4.3-2.2c-4.1-1.7-6.8-3.2-8.1-4.4c-1.6-1.6-2.4-3.6-2.4-6c0-3.1,1.2-5.5,3.6-7.1c2.3-1.6,5.4-2.4,9.2-2.4
				c2.1,0,5.5,0.3,9.3,1.1v5.5c-3-0.8-5.9-1.3-8.4-1.3c-3.5,0-5.3,1-5.3,2.9c0,0.7,0.4,1.3,1.1,1.8c0.6,0.4,2.2,1.2,4.9,2.4
				c3.8,1.7,6.4,3.2,7.7,4.4c1.5,1.5,2.3,3.4,2.3,5.8c0,3.4-1.5,6-4.4,7.8c-2.4,1.5-5.5,2.2-9.3,2.2C50.6,35,47.4,34.7,44.1,33.9z"
				/>
			<polygon id="polygon116" class="st0" points="86.8,34.4 86.8,3.1 96.8,3.1 107.9,24 107.9,3.1 114.1,3.1 114.1,34.4 104.7,34.4 
				93,13.1 93,34.4 			"/>
			<polygon id="polygon118" class="st1" points="196,11.9 188.7,34.4 180.7,34.4 191.4,3.1 200.7,3.1 211.4,34.4 203.4,34.4 			"/>
			<path id="path120" class="st1" d="M238.7,28.3c-2.4,0.7-6.1,1.1-7.5,1.1c-3.3,0-5.9-1-7.8-2.9c-2-1.9-2.9-4.5-2.9-7.7
				s1-5.7,2.9-7.7s4.4-3,7.6-3c1.3,0,4.3,0.2,7.8,1.4V3.8c-0.8-0.3-1.9-0.6-3.1-0.8c-1.5-0.3-3.2-0.5-5.1-0.5
				c-5.4,0-9.7,1.5-12.9,4.5c-3.2,3-4.8,7-4.8,12.1c0,5,1.6,9,4.8,11.8c3.2,2.9,7.5,4.3,13.1,4.3c1.7,0,3.3-0.1,4.8-0.4
				c1.2-0.2,2.3-0.4,3.4-0.7v-5.8H238.7z"/>
		</g>
	</g>
</g>
</svg>
