<?xml version="1.0" encoding="utf-8"?>
<!-- Generator: Adobe Illustrator 26.0.2, SVG Export Plug-In . SVG Version: 6.00 Build 0)  -->
<svg version="1.1" id="Layer_1" xmlns="http://www.w3.org/2000/svg" xmlns:xlink="http://www.w3.org/1999/xlink" x="0px" y="0px"
	 viewBox="0 0 194 181.3" style="enable-background:new 0 0 194 181.3;" xml:space="preserve">
<style type="text/css">
	.st0{fill:#FBB03B;}
	.st1{opacity:0.14;fill:#EF4C53;}
	.st2{fill:#FFFFFF;}
	.st3{opacity:0.2;fill-rule:evenodd;clip-rule:evenodd;}
	.st4{fill-rule:evenodd;clip-rule:evenodd;fill:#F8F2D0;}
	.st5{fill-rule:evenodd;clip-rule:evenodd;fill:#EB9722;}
	.st6{fill:#D7747E;}
</style>
<g>
	<g>
		<g>
			<g>
				<path class="st0" d="M5.4,81.1l-0.8,0.6c-2.9,2.1-4.6,5.5-4.6,9c0,3.6,1.7,6.9,4.6,9l0.8,0.6L4.8,101c-2.4,2.7-3.3,6.4-2.5,9.8
					c0.8,3.5,3.2,6.4,6.5,7.8l0.9,0.4l-0.5,0.8C7.5,123,7.4,126.8,9,130c1.6,3.2,4.6,5.5,8.1,6.1l1,0.2l-0.3,0.9
					c-1,3.5-0.2,7.2,2,10c2.2,2.8,5.7,4.4,9.3,4.2l1,0l0,1c-0.2,3.6,1.4,7,4.2,9.3c2.8,2.2,6.5,3,10,2l0.9-0.3l0.2,1
					c0.6,3.5,2.9,6.5,6.1,8.1c3.2,1.6,7,1.5,10.2-0.3l0.8-0.5l0.4,0.9c1.4,3.3,4.3,5.7,7.8,6.5c3.5,0.8,7.2-0.1,9.8-2.5l0.7-0.6
					l0.6,0.8c2.1,2.9,5.5,4.6,9,4.6c3.6,0,6.9-1.7,9-4.6l0.6-0.8l0.7,0.6c2.7,2.4,6.4,3.3,9.8,2.5c3.5-0.8,6.4-3.2,7.8-6.5l0.4-0.9
					l0.8,0.5c3.1,1.7,6.9,1.8,10.2,0.3c3.2-1.6,5.5-4.6,6.1-8.1l0.2-1l0.9,0.3c3.5,1,7.2,0.2,10-2c2.8-2.2,4.4-5.7,4.2-9.3l0-1l1,0
					c3.6,0.2,7-1.4,9.3-4.2c2.2-2.8,3-6.5,2-10l-0.3-0.9l1-0.2c3.5-0.6,6.5-2.9,8.1-6.1c1.6-3.2,1.5-7-0.3-10.2l-0.5-0.8l0.9-0.4
					c3.3-1.4,5.7-4.3,6.5-7.8c0.8-3.5-0.1-7.2-2.5-9.8l-0.6-0.7l0.8-0.6c2.9-2.1,4.6-5.5,4.6-9c0-3.6-1.7-6.9-4.6-9l-0.8-0.6
					l0.6-0.7c2.4-2.7,3.3-6.4,2.5-9.8c-0.8-3.5-3.2-6.4-6.5-7.8l-0.9-0.4l0.5-0.9c1.7-3.1,1.8-6.9,0.3-10.2
					c-1.6-3.2-4.6-5.5-8.1-6.1l-1-0.2l0.3-0.9c1-3.4,0.2-7.2-2-10c-2.2-2.8-5.7-4.4-9.3-4.2l-1,0l0-1c0.2-3.6-1.4-7-4.2-9.3
					c-2.8-2.2-6.5-3-10-2l-0.9,0.3l-0.2-1c-0.6-3.5-2.9-6.5-6.1-8.1c-3.2-1.6-7-1.5-10.2,0.3L119,9.7l-0.4-0.9
					c-1.4-3.3-4.3-5.7-7.8-6.5c-3.5-0.8-7.2,0.1-9.8,2.5l-0.7,0.6l-0.6-0.8c-2.1-2.9-5.5-4.6-9-4.6c-3.6,0-6.9,1.7-9,4.6l-0.6,0.8
					l-0.7-0.6c-2.7-2.4-6.3-3.3-9.8-2.5c-3.5,0.8-6.4,3.2-7.8,6.5l-0.4,0.9l-0.8-0.5C58.3,7.5,54.6,7.4,51.3,9
					c-3.2,1.6-5.5,4.6-6.1,8.1L45,18l-0.9-0.3c-3.4-1-7.2-0.2-10,2C31.3,22,29.8,25.5,30,29l0,1l-1,0c-3.6-0.2-7,1.4-9.3,4.2
					c-2.2,2.8-3,6.5-2,10L18,45l-1,0.2c-3.5,0.6-6.5,2.9-8.1,6.1c-1.6,3.2-1.5,7,0.3,10.2l0.5,0.9l-0.9,0.4
					c-3.3,1.4-5.7,4.3-6.5,7.8c-0.8,3.5,0.1,7.2,2.5,9.8L5.4,81.1z"/>
				<path class="st1" d="M158.3,145.5c-29,3.2-61.2-5.7-79.1-29.9C56.8,85.3,50.3,34,72.7,2c-0.7,0-1.5,0.1-2.2,0.3
					c-3.5,0.8-6.4,3.2-7.8,6.5l-0.4,0.9l-0.8-0.5C58.3,7.5,54.6,7.4,51.3,9c-3.2,1.6-5.5,4.6-6.1,8.1L45,18l-0.9-0.3
					c-3.4-1-7.2-0.2-10,2C31.3,22,29.8,25.5,30,29l0,1l-1,0c-3.6-0.2-7,1.4-9.3,4.2c-2.2,2.8-3,6.5-2,10L18,45l-1,0.2
					c-3.5,0.6-6.5,2.9-8.1,6.1c-1.6,3.2-1.5,7,0.3,10.2l0.5,0.9l-0.9,0.4c-3.3,1.4-5.7,4.3-6.5,7.8c-0.8,3.5,0.1,7.2,2.5,9.8
					l0.6,0.7l-0.8,0.6c-2.9,2.1-4.6,5.5-4.6,9c0,3.6,1.7,6.9,4.6,9l0.8,0.6L4.8,101c-2.4,2.7-3.3,6.4-2.5,9.8
					c0.8,3.5,3.2,6.4,6.5,7.8l0.9,0.4l-0.5,0.8C7.5,123,7.4,126.8,9,130c1.6,3.2,4.6,5.5,8.1,6.1l1,0.2l-0.3,0.9
					c-1,3.5-0.2,7.2,2,10c2.2,2.8,5.7,4.4,9.3,4.2l1,0l0,1c-0.2,3.6,1.4,7,4.2,9.3c2.8,2.2,6.5,3,10,2l0.9-0.3l0.2,1
					c0.6,3.5,2.9,6.5,6.1,8.1c3.2,1.6,7,1.5,10.2-0.3l0.8-0.5l0.4,0.9c1.4,3.3,4.3,5.7,7.8,6.5c3.5,0.8,7.2-0.1,9.8-2.5l0.7-0.6
					l0.6,0.8c2.1,2.9,5.5,4.6,9,4.6c3.6,0,6.9-1.7,9-4.6l0.6-0.8l0.7,0.6c2.7,2.4,6.4,3.3,9.8,2.5c3.5-0.8,6.4-3.2,7.8-6.5l0.4-0.9
					l0.8,0.5c3.1,1.7,6.9,1.8,10.2,0.3c3.2-1.6,5.5-4.6,6.1-8.1l0.2-1l0.9,0.3c3.5,1,7.2,0.2,10-2c2.8-2.2,4.4-5.7,4.2-9.3l0-1l1,0
					c3.6,0.2,7-1.4,9.3-4.2c0.6-0.7,1.1-1.6,1.5-2.4C161.4,145,159.9,145.3,158.3,145.5z"/>
			</g>
		</g>
		<g>
			<g>
				<path class="st2" d="M54.7,74.6c0.2,0.1,0.2,0.3,0.1,0.5c-0.1,0.2-0.3,0.4-0.5,0.6c-0.2,0.2-0.5,0.4-0.8,0.5
					c-0.3,0.2-0.7,0.2-1,0.2c-0.3,0-0.6-0.1-0.9-0.3c-0.3-0.2-0.6-0.4-0.8-0.8s-0.4-0.8-0.6-1.4c-0.1-0.6-0.2-1.2-0.2-2V54.1
					c0-0.7-0.1-1.3-0.2-1.7c-0.1-0.4-0.3-0.7-0.5-0.9s-0.4-0.3-0.6-0.3c-0.2,0-0.4,0-0.5,0c-0.1,0-0.3,0-0.5,0.1
					c-0.2,0-0.4,0.2-0.6,0.4c-0.2,0.2-0.4,0.5-0.5,1c-0.1,0.4-0.2,1.1-0.2,1.9v20.8c0,0,0.1,0,0.1,0.1c0,0,0.1,0.1,0.1,0.1
					c0,0.1-0.1,0.2-0.2,0.3c-0.1,0.1-0.3,0.2-0.5,0.3c-0.2,0.1-0.5,0.2-0.7,0.2c-0.3,0.1-0.5,0.1-0.8,0.1c-0.3,0-0.5,0-0.7-0.1
					c-0.2-0.1-0.3-0.3-0.3-0.6V54.1c0-0.7-0.1-1.3-0.2-1.7c-0.1-0.4-0.3-0.7-0.5-0.9s-0.4-0.3-0.6-0.3c-0.2,0-0.4,0-0.5,0
					c-0.1,0-0.3,0-0.5,0c-0.2,0-0.4,0.1-0.6,0.3c-0.2,0.2-0.4,0.5-0.5,0.9c-0.1,0.4-0.2,1-0.2,1.7v17.1c0,1.7-0.3,3-0.8,3.9
					s-1.4,1.3-2.5,1.3c-0.4,0-0.7-0.1-0.9-0.2c-0.2-0.1-0.4-0.3-0.6-0.5c-0.1-0.2-0.2-0.4-0.3-0.6c-0.1-0.2-0.1-0.4-0.1-0.6
					c0-0.1,0-0.1,0.1-0.2c0.1,0,0.1,0,0.2,0c0.1,0,0.2,0,0.3,0c0.1,0,0.3,0,0.4-0.1c0.1,0,0.3-0.2,0.4-0.3c0.1-0.2,0.2-0.4,0.3-0.7
					c0.1-0.3,0.2-0.7,0.2-1.1c0.1-0.4,0.1-1,0.1-1.6V54.5c0-1.1,0.1-2.1,0.4-2.9c0.3-0.8,0.6-1.4,1.1-1.9c0.5-0.5,1-0.8,1.5-1.1
					c0.6-0.2,1.1-0.3,1.7-0.3c0.2,0,0.4,0,0.7,0c0.3,0,0.6,0.1,0.9,0.2s0.7,0.3,1,0.5c0.3,0.2,0.7,0.5,1,0.8
					c0.2-0.4,0.5-0.6,0.8-0.8c0.3-0.2,0.6-0.4,0.9-0.5c0.3-0.1,0.6-0.2,0.8-0.2c0.3,0,0.5,0,0.7,0c0.6,0,1.2,0.1,1.8,0.3
					c0.6,0.2,1.1,0.6,1.6,1.1c0.5,0.5,0.8,1.1,1.1,1.9c0.3,0.8,0.4,1.7,0.4,2.9v17.1c0,0.4,0,0.8,0.1,1.1c0.1,0.3,0.2,0.6,0.4,0.8
					c0.2,0.2,0.3,0.5,0.6,0.6C54.3,74.4,54.5,74.5,54.7,74.6z"/>
				<path class="st2" d="M67.6,73.9c0.4,0,0.7-0.1,1-0.4c0.3-0.3,0.5-0.6,0.7-1c0.2-0.4,0.4-0.9,0.5-1.3c0.1-0.5,0.2-0.9,0.3-1.4
					c0.1-0.4,0.2-0.7,0.4-0.9c0.2-0.2,0.4-0.3,0.6-0.3c0.2,0,0.3,0,0.5,0.1c0.2,0.1,0.3,0.2,0.4,0.4c0.1,0.2,0.2,0.3,0.3,0.5
					c0.1,0.2,0.1,0.4,0.1,0.6c0,0,0,0.1,0,0.1s0,0.1,0,0.2c-0.2,0.6-0.4,1.3-0.7,2c-0.3,0.7-0.6,1.3-1.1,1.9c-0.4,0.6-1,1.1-1.6,1.5
					c-0.6,0.4-1.3,0.6-2.2,0.6c-0.7,0-1.3-0.1-1.8-0.4c-0.5-0.3-0.9-0.7-1.2-1.1c-0.4,0.4-0.9,0.8-1.4,1.1c-0.5,0.3-1.2,0.5-1.9,0.5
					c-0.8,0-1.4-0.2-2-0.5s-1-0.7-1.4-1.2c-0.4-0.5-0.7-1.1-0.9-1.8s-0.3-1.5-0.3-2.3c0-1.6,0.3-3,0.8-4.3c0.5-1.3,1.2-2.4,2-3.3
					c0.9-0.9,1.8-1.6,2.9-2.1c1.1-0.5,2.2-0.7,3.4-0.7c0.5,0,1,0.1,1.3,0.4c0.3,0.3,0.5,0.7,0.5,1.2c0,0.3,0,0.6-0.1,0.7
					c-0.1,0.1-0.2,0.2-0.4,0.2c-0.2,0-0.4,0-0.5,0c-0.2,0-0.4,0-0.6,0c-0.7,0-1.5,0.2-2.2,0.5c-0.8,0.3-1.4,0.8-2,1.5
					c-0.6,0.7-1.1,1.5-1.5,2.5S59,69.3,59,70.7c0,1,0.2,1.8,0.6,2.3c0.4,0.5,0.9,0.8,1.6,0.8c0.5,0,1-0.2,1.3-0.6
					c0.4-0.4,0.6-0.9,0.8-1.4V66c0-0.2,0-0.3,0-0.5c0-0.1,0-0.2-0.1-0.3c0-0.1,0-0.2,0-0.2c0-0.1,0-0.1,0-0.2c0-0.2,0.1-0.4,0.3-0.5
					s0.4-0.2,0.7-0.2c0.6,0,1.1,0.2,1.5,0.5c0.4,0.3,0.6,0.7,0.6,1.2v6.4c0,0.2,0,0.4,0.1,0.6c0,0.2,0.1,0.4,0.2,0.6
					c0.1,0.2,0.2,0.3,0.4,0.4C67.2,73.8,67.4,73.9,67.6,73.9z"/>
				<path class="st2" d="M70.4,51.6c0-0.3,0-0.5-0.1-0.7s-0.1-0.3-0.1-0.4c0-0.1-0.1-0.2-0.1-0.2c0-0.1-0.1-0.1-0.1-0.2
					c0-0.1,0-0.1,0.1-0.2c0.1-0.1,0.2-0.1,0.3-0.1c0.1,0,0.3-0.1,0.4-0.1c0.1,0,0.3,0,0.4,0c0.6,0,1.1,0.2,1.5,0.5
					c0.4,0.3,0.6,0.7,0.6,1.2v12c0.3-0.4,0.6-0.8,1-1.2c0.3-0.4,0.7-0.7,1.1-1c0.4-0.3,0.8-0.5,1.2-0.7c0.4-0.2,0.8-0.3,1.3-0.3
					c0.6,0,1.1,0.1,1.5,0.3s0.8,0.5,1.1,0.9c0.3,0.4,0.5,0.8,0.6,1.3c0.1,0.5,0.2,1,0.2,1.6c0,0.7-0.1,1.4-0.4,2.1
					c-0.2,0.6-0.5,1.2-0.9,1.8c-0.4,0.5-0.8,1-1.2,1.4s-0.8,0.8-1.2,1c0.1,0.4,0.2,0.8,0.4,1.2c0.2,0.4,0.3,0.7,0.6,1
					s0.5,0.5,0.8,0.7c0.3,0.2,0.6,0.3,1,0.3c0.4,0,0.8-0.1,1.2-0.4c0.4-0.3,0.7-0.6,1-1c0.3-0.4,0.5-0.9,0.7-1.3
					c0.2-0.5,0.3-0.9,0.4-1.4c0.1-0.4,0.2-0.7,0.3-0.8c0.2-0.2,0.3-0.3,0.5-0.3c0.2,0,0.4,0,0.6,0.1c0.2,0.1,0.4,0.3,0.5,0.4
					c0.1,0.2,0.2,0.4,0.3,0.6s0.1,0.4,0,0.6c-0.2,0.5-0.4,1.1-0.8,1.8c-0.3,0.7-0.7,1.3-1.2,2c-0.5,0.6-1.1,1.1-1.8,1.6
					c-0.7,0.4-1.5,0.6-2.3,0.6c-0.8,0-1.4-0.2-2.1-0.6c-0.6-0.4-1.2-0.9-1.6-1.5c-0.4-0.6-0.8-1.2-1-1.9c-0.2-0.7-0.4-1.4-0.4-2
					c0-0.2,0.1-0.4,0.3-0.6c0.2-0.2,0.4-0.4,0.7-0.7c0.3-0.2,0.6-0.5,0.9-0.8c0.3-0.3,0.6-0.6,0.9-1s0.5-0.8,0.7-1.3
					c0.2-0.5,0.3-1,0.3-1.6c0-0.5-0.1-0.9-0.3-1.2s-0.5-0.5-0.9-0.5c-0.2,0-0.5,0.1-0.8,0.3c-0.3,0.2-0.7,0.5-1,0.9
					c-0.4,0.4-0.7,1-1.1,1.6c-0.4,0.7-0.7,1.5-1,2.5v6.6c0,0.2,0,0.4,0,0.6c0,0.2,0,0.4-0.1,0.5c-0.1,0.2-0.2,0.3-0.3,0.4
					s-0.4,0.2-0.6,0.2c-0.2,0-0.4,0-0.6-0.1c-0.2,0-0.4-0.1-0.6-0.2s-0.3-0.3-0.5-0.5c-0.1-0.2-0.2-0.5-0.2-0.9V51.6z"/>
				<path class="st2" d="M92.7,64.1c0,0.7-0.1,1.4-0.4,2.2c-0.2,0.8-0.6,1.5-1.1,2.1s-1.1,1.3-1.8,1.8c-0.7,0.5-1.5,0.9-2.5,1.2
					c0.1,0.3,0.3,0.6,0.5,0.9c0.2,0.3,0.5,0.5,0.7,0.8c0.3,0.2,0.6,0.4,1,0.5c0.4,0.1,0.8,0.2,1.3,0.2c0.8,0,1.4-0.1,1.9-0.4
					c0.5-0.3,1-0.7,1.4-1.1c0.4-0.5,0.7-1,0.9-1.6c0.2-0.6,0.4-1.2,0.5-1.7c0.1-0.4,0.3-0.7,0.5-0.9s0.5-0.2,0.8-0.1
					c0.3,0.1,0.5,0.2,0.7,0.5c0.2,0.2,0.3,0.5,0.3,0.9c-0.1,0.4-0.1,0.8-0.3,1.3s-0.3,1-0.5,1.5c-0.2,0.5-0.5,1-0.9,1.5
					c-0.4,0.5-0.8,0.9-1.4,1.3s-1.2,0.7-1.9,0.9c-0.7,0.2-1.6,0.4-2.5,0.4c-0.9,0-1.7-0.2-2.5-0.5c-0.8-0.3-1.5-0.8-2.2-1.5
					S84.3,73,83.9,72c-0.4-0.9-0.6-2-0.6-3.2c0-1.2,0.2-2.3,0.5-3.4s0.8-2,1.3-2.7c0.6-0.8,1.2-1.4,1.9-1.8c0.7-0.4,1.4-0.6,2.2-0.6
					c0.5,0,1,0.1,1.5,0.3c0.4,0.2,0.8,0.5,1.1,0.8c0.3,0.3,0.5,0.8,0.7,1.2C92.6,63,92.7,63.6,92.7,64.1z M86.5,68.7
					c0,0.1,0,0.2,0,0.3s0,0.2,0,0.4c0.5-0.2,0.9-0.5,1.3-0.9c0.4-0.4,0.7-0.8,1-1.2c0.3-0.5,0.5-0.9,0.6-1.5s0.2-1.1,0.2-1.7
					c0-0.4-0.1-0.8-0.2-1c-0.1-0.2-0.3-0.4-0.6-0.4c-0.3,0-0.6,0.1-0.8,0.3c-0.2,0.2-0.5,0.5-0.6,0.8s-0.3,0.7-0.5,1.2
					c-0.1,0.4-0.2,0.9-0.3,1.3c-0.1,0.4-0.1,0.9-0.2,1.2C86.5,68.1,86.5,68.4,86.5,68.7z"/>
				<path class="st2" d="M77.7,97.2c0.1-0.4,0.2-0.7,0.4-0.9s0.3-0.3,0.5-0.3c0.2,0,0.3,0,0.5,0.1c0.2,0.1,0.3,0.2,0.4,0.4
					c0.1,0.2,0.2,0.3,0.3,0.5c0.1,0.2,0.1,0.4,0.1,0.6c0,0,0,0.1,0,0.2s0,0.2,0,0.2c-0.3,1.1-0.7,2.1-1.1,3s-0.9,1.6-1.4,2.3
					s-1,1.3-1.5,1.8c-0.5,0.5-1.1,1-1.6,1.5v6.7c0,1-0.1,1.9-0.3,2.6c-0.2,0.7-0.5,1.3-0.9,1.7s-0.8,0.7-1.3,0.9
					c-0.5,0.2-1,0.3-1.4,0.3c-0.5,0-1-0.1-1.5-0.3c-0.5-0.2-0.8-0.5-1.2-0.9c-0.3-0.4-0.6-0.9-0.8-1.4c-0.2-0.5-0.3-1.1-0.3-1.7
					c0-1,0.1-1.8,0.4-2.6s0.6-1.4,1-2.1c0.4-0.6,0.9-1.2,1.5-1.8c0.6-0.5,1.2-1.1,1.8-1.7v-4.9c-0.5,0.8-1,1.4-1.6,1.9
					c-0.6,0.5-1.3,0.7-2.2,0.7c-0.6,0-1.2-0.1-1.7-0.4c-0.5-0.3-0.9-0.6-1.3-1.1c-0.4-0.5-0.6-1.1-0.8-1.7c-0.2-0.7-0.3-1.4-0.3-2.3
					c0-1,0.1-2,0.2-3.1s0.3-2,0.5-2.8c0.2-1,0.4-1.9,0.7-2.8c0.1-0.2,0.1-0.3,0.1-0.5c0-0.2,0.1-0.3,0.2-0.5
					c0.1-0.1,0.3-0.3,0.5-0.3c0.2-0.1,0.6-0.1,1.1-0.1c0.5,0,0.8,0.1,0.9,0.3c0.1,0.2,0.2,0.4,0.2,0.6c0,0.2-0.1,0.5-0.2,0.7
					c-0.1,0.2-0.2,0.4-0.2,0.6c-0.2,0.7-0.3,1.4-0.5,2c-0.1,0.6-0.3,1.2-0.3,1.8c-0.1,0.6-0.2,1.2-0.2,1.9c-0.1,0.6-0.1,1.4-0.1,2.2
					c0,1.1,0.2,1.8,0.5,2.4c0.3,0.5,0.7,0.8,1.3,0.8c0.4,0,0.7-0.1,1.1-0.4c0.3-0.3,0.6-0.7,0.9-1.2c0.3-0.5,0.5-1,0.7-1.7
					c0.2-0.6,0.4-1.3,0.5-1.9V90c0-0.4,0-0.6-0.1-0.8c-0.1-0.2-0.1-0.3-0.1-0.5c0-0.2,0.1-0.3,0.3-0.5s0.4-0.2,0.7-0.2
					c0.6,0,1.1,0.2,1.5,0.5c0.4,0.3,0.6,0.7,0.6,1.2v13.5c0.7-0.8,1.3-1.7,1.9-2.7C76.8,99.7,77.3,98.5,77.7,97.2z M70.3,116.2
					c0.3,0,0.5-0.1,0.7-0.4s0.3-0.5,0.3-0.9c0.1-0.3,0.1-0.7,0.1-1c0-0.3,0-0.6,0-0.8v-4.1c-0.6,0.6-1.1,1.3-1.5,2.1
					c-0.4,0.8-0.6,1.8-0.6,2.9c0,0.6,0.1,1.1,0.3,1.5C69.7,116,70,116.2,70.3,116.2z"/>
				<path class="st2" d="M91.9,96.4c0-0.2,0.1-0.3,0.3-0.4c0.1-0.1,0.3-0.2,0.5-0.2c0.2,0,0.4,0,0.6,0c0.2,0,0.4,0.1,0.5,0.3
					c0.2,0.1,0.3,0.3,0.3,0.5c0.1,0.2,0.1,0.5,0,0.9c-0.1,0.5-0.3,1-0.6,1.5c-0.3,0.5-0.6,0.9-1,1.2c-0.4,0.4-0.8,0.6-1.4,0.8
					s-1.1,0.3-1.8,0.3c-0.4,0-0.7,0-1-0.1c-0.3,0-0.6-0.1-0.9-0.2c-0.5,0.8-1.1,1.5-1.8,2c-0.8,0.5-1.7,0.8-2.8,0.8
					c-1,0-1.8-0.2-2.5-0.6s-1.3-0.9-1.7-1.6c-0.5-0.7-0.8-1.4-1-2.3c-0.2-0.9-0.3-1.8-0.3-2.7c0-1.4,0.2-2.7,0.5-3.8
					c0.3-1.1,0.7-2.1,1.2-2.9c0.4-0.8,0.9-1.4,1.3-1.8c0.4-0.4,0.8-0.6,1-0.6c0.3,0,0.5,0.1,0.7,0.3c0.2,0.2,0.4,0.5,0.5,0.8
					c0.1,0.3,0.1,0.6,0.1,0.9c0,0.3-0.2,0.5-0.4,0.7c-0.2,0.2-0.3,0.5-0.5,0.8c-0.2,0.3-0.4,0.7-0.6,1.2c-0.2,0.5-0.3,1-0.5,1.7
					c-0.1,0.7-0.2,1.5-0.2,2.4c0,0.8,0.1,1.5,0.2,2.1c0.1,0.6,0.3,1.1,0.6,1.5c0.3,0.4,0.6,0.7,0.9,0.9c0.3,0.2,0.7,0.3,1.1,0.3
					c0.6,0,1-0.1,1.4-0.4c0.4-0.3,0.7-0.6,0.9-1.1c-0.9-0.8-1.6-1.8-2.1-3c-0.5-1.2-0.7-2.5-0.7-3.9c0-0.6,0.1-1.2,0.2-1.7
					c0.1-0.5,0.3-1,0.6-1.4s0.6-0.7,1-1c0.4-0.2,0.8-0.4,1.4-0.4c0.5,0,0.9,0.2,1.3,0.5c0.4,0.3,0.8,0.8,1.1,1.4
					c0.3,0.6,0.5,1.3,0.7,2c0.2,0.8,0.3,1.6,0.3,2.6c0,0.7,0,1.4-0.1,2.1c-0.1,0.7-0.2,1.4-0.4,2c0.1,0.1,0.3,0.1,0.4,0.1
					c0.1,0,0.2,0,0.4,0c0.4,0,0.8-0.1,1.1-0.2c0.3-0.2,0.6-0.4,0.8-0.6c0.2-0.2,0.4-0.5,0.5-0.9C91.8,97.2,91.9,96.8,91.9,96.4z
					 M84.6,92.9c0,0.9,0.1,1.7,0.4,2.5c0.3,0.8,0.6,1.5,1.1,2c0.1-0.6,0.1-1.2,0.1-1.8c0-0.7,0-1.3,0-1.8c0-0.6-0.1-1-0.1-1.4
					c-0.1-0.4-0.2-0.7-0.3-0.9S85.4,91,85.2,91C84.8,91,84.6,91.6,84.6,92.9z"/>
				<path class="st2" d="M102.5,103.9c-0.4,0-0.8-0.1-1.2-0.2c-0.4-0.1-0.7-0.3-0.9-0.6c-0.3-0.2-0.5-0.5-0.7-0.9
					c-0.2-0.3-0.3-0.7-0.4-1.1c-0.5,0.8-1,1.5-1.6,2c-0.6,0.5-1.4,0.8-2.2,0.8c-0.6,0-1.2-0.1-1.7-0.4c-0.5-0.3-0.9-0.6-1.3-1.1
					c-0.4-0.5-0.6-1.1-0.8-1.7c-0.2-0.7-0.3-1.4-0.3-2.3c0-1,0.1-2,0.2-3.1s0.3-2,0.5-2.8c0.2-1,0.4-1.9,0.7-2.8
					c0.1-0.2,0.1-0.3,0.1-0.5c0-0.2,0.1-0.3,0.2-0.5c0.1-0.1,0.3-0.3,0.5-0.3c0.2-0.1,0.6-0.1,1.1-0.1c0.5,0,0.8,0.1,0.9,0.3
					c0.1,0.2,0.2,0.4,0.2,0.6s-0.1,0.5-0.2,0.7c-0.1,0.2-0.2,0.4-0.2,0.6c-0.2,0.7-0.3,1.4-0.5,2c-0.1,0.6-0.3,1.2-0.3,1.8
					c-0.1,0.6-0.2,1.2-0.2,1.9c-0.1,0.6-0.1,1.4-0.1,2.2c0,1.1,0.2,1.8,0.5,2.4c0.3,0.5,0.7,0.8,1.3,0.8c0.4,0,0.8-0.1,1.1-0.4
					c0.3-0.3,0.6-0.7,0.9-1.2s0.5-1,0.7-1.7c0.2-0.6,0.4-1.3,0.5-1.9V90c0-0.3,0-0.5-0.1-0.7c0-0.2-0.1-0.3-0.1-0.4
					c0-0.1-0.1-0.2-0.1-0.2c0-0.1-0.1-0.1-0.1-0.2c0-0.1,0-0.1,0.1-0.2c0.1,0,0.2-0.1,0.3-0.1s0.3-0.1,0.4-0.1c0.1,0,0.3,0,0.4,0
					c0.6,0,1.1,0.2,1.5,0.5c0.4,0.3,0.6,0.7,0.6,1.2v9.8c0,0.1,0,0.2,0,0.4c0,0.2,0,0.4,0.1,0.6c0.1,0.2,0.2,0.4,0.3,0.5
					c0.1,0.2,0.3,0.2,0.6,0.2c0.4,0,0.7-0.1,1-0.4s0.5-0.6,0.7-1c0.2-0.4,0.4-0.9,0.5-1.3c0.1-0.5,0.2-0.9,0.3-1.4
					c0.1-0.4,0.2-0.7,0.4-0.9s0.4-0.3,0.5-0.3c0.2,0,0.3,0,0.5,0.1c0.2,0.1,0.3,0.2,0.4,0.4c0.1,0.2,0.2,0.3,0.3,0.5
					c0.1,0.2,0.1,0.4,0.1,0.6c0,0,0,0.1,0,0.1c0,0,0,0.1,0,0.2c-0.2,0.6-0.4,1.3-0.7,2c-0.3,0.7-0.6,1.3-1.1,1.9
					c-0.4,0.6-1,1.1-1.6,1.5C104.1,103.7,103.3,103.9,102.5,103.9z"/>
				<path class="st2" d="M114.3,103.9c-0.5,0-0.9-0.1-1.4-0.2c-0.5-0.1-0.9-0.4-1.3-0.7c-0.4-0.3-0.7-0.8-0.9-1.3
					c-0.2-0.6-0.4-1.3-0.4-2.1c0-1.2,0.2-2.6,0.5-3.9s0.8-2.9,1.4-4.6h-2.9h-0.4c0,0.4,0,0.9-0.1,1.4c0,0.6-0.1,1.2-0.2,1.8
					s-0.2,1.3-0.3,2c-0.1,0.7-0.3,1.3-0.4,1.8c-0.1,0.4-0.3,0.6-0.6,0.7s-0.5,0-0.8-0.1c-0.3-0.2-0.5-0.4-0.6-0.7s-0.2-0.6-0.1-0.9
					c0.1-0.4,0.2-0.9,0.3-1.4s0.1-1.1,0.2-1.8c0-0.6,0.1-1.2,0.1-1.9c0-0.6,0-1.2,0.1-1.7c-0.5-0.3-0.9-0.6-1.2-1
					c-0.3-0.4-0.5-0.9-0.5-1.5c0-0.3,0.1-0.5,0.2-0.7s0.2-0.4,0.4-0.6s0.4-0.3,0.6-0.4c0.2-0.1,0.5-0.1,0.7-0.1c0.2,0,0.5,0,0.7,0.1
					s0.5,0.2,0.7,0.3c0.2,0.2,0.4,0.4,0.6,0.6c0.2,0.3,0.3,0.6,0.4,1c0.3,0,0.6,0.1,0.8,0.1c0.2,0,0.4,0,0.6,0c0.2,0,0.3,0,0.4,0
					c0.1,0,0.2,0,0.3,0h2c0.1,0,0.3,0.1,0.5,0.2c0.2,0.1,0.4,0.3,0.6,0.5c0.2,0.2,0.4,0.5,0.5,0.7c0.1,0.3,0.2,0.5,0.2,0.7
					c0,0.1,0,0.3-0.1,0.5c-0.1,0.3-0.2,0.7-0.3,1.1c-0.1,0.4-0.3,0.9-0.4,1.5c-0.2,0.6-0.3,1.2-0.4,1.8s-0.2,1.3-0.3,1.9
					c-0.1,0.7-0.1,1.3-0.1,2c0,0.3,0,0.5,0.1,0.8c0.1,0.3,0.2,0.5,0.3,0.7s0.3,0.3,0.5,0.5c0.2,0.1,0.4,0.2,0.7,0.2
					c0.4,0,0.8-0.1,1.1-0.4c0.3-0.3,0.6-0.6,0.8-1c0.2-0.4,0.4-0.9,0.5-1.3c0.1-0.5,0.2-0.9,0.3-1.4c0.1-0.4,0.2-0.7,0.4-0.9
					c0.2-0.2,0.4-0.3,0.5-0.3c0.2,0,0.3,0,0.5,0.1s0.3,0.2,0.4,0.4c0.1,0.2,0.2,0.3,0.3,0.5c0.1,0.2,0.1,0.4,0.1,0.6
					c0,0.1,0,0.1,0,0.2c0,0,0,0.1,0,0.1c-0.2,0.6-0.4,1.3-0.7,2c-0.3,0.7-0.6,1.3-1.1,1.9c-0.4,0.6-1,1.1-1.6,1.5
					C115.9,103.7,115.2,103.9,114.3,103.9z"/>
				<path class="st2" d="M93.3,135.7c-0.9,0-1.7-0.2-2.5-0.5c-0.8-0.3-1.5-0.8-2.1-1.4c-0.6-0.6-1.1-1.4-1.5-2.3s-0.6-1.9-0.6-3.1
					c0-1.1,0.2-2.2,0.5-3.3c0.3-1.1,0.7-2,1.3-2.8c0.6-0.8,1.2-1.5,2-2c0.8-0.5,1.6-0.8,2.5-0.8c0.7,0,1.2,0.1,1.7,0.4
					c0.5,0.3,0.8,0.6,1.1,1c0.3,0.4,0.5,0.8,0.6,1.2c0.1,0.4,0.2,0.8,0.2,1.2c0,0.3-0.1,0.5-0.2,0.7c-0.1,0.2-0.3,0.4-0.5,0.5
					c-0.2,0.1-0.4,0.2-0.6,0.3c-0.2,0.1-0.4,0.1-0.6,0.1s-0.3-0.1-0.4-0.2c-0.1-0.1-0.1-0.3-0.1-0.5c-0.1-0.2-0.1-0.4-0.1-0.6
					s-0.1-0.5-0.2-0.7c-0.1-0.2-0.3-0.4-0.4-0.6c-0.2-0.2-0.4-0.2-0.8-0.2c-0.4,0-0.7,0.2-1,0.5s-0.6,0.8-0.9,1.4
					c-0.3,0.6-0.5,1.2-0.6,2s-0.2,1.6-0.2,2.4c0,0.8,0.1,1.4,0.3,2c0.2,0.6,0.5,1.1,0.8,1.5c0.4,0.4,0.8,0.7,1.3,0.9
					c0.5,0.2,1,0.3,1.6,0.3c0.8,0,1.4-0.1,2-0.4c0.6-0.3,1-0.7,1.4-1.1s0.7-1,0.9-1.6c0.2-0.6,0.4-1.2,0.5-1.7
					c0.1-0.4,0.3-0.7,0.5-0.9s0.5-0.2,0.8-0.1s0.5,0.2,0.7,0.5s0.3,0.5,0.3,0.9c-0.1,0.4-0.1,0.8-0.3,1.3c-0.1,0.5-0.3,1-0.6,1.5
					c-0.3,0.5-0.6,1-1,1.5c-0.4,0.5-0.8,0.9-1.4,1.3s-1.2,0.7-1.9,0.9C95,135.6,94.2,135.7,93.3,135.7z"/>
				<path class="st2" d="M109.4,133.2c0.4,0,0.7-0.1,1-0.4s0.5-0.6,0.7-1c0.2-0.4,0.4-0.9,0.5-1.3c0.1-0.5,0.2-0.9,0.3-1.4
					c0.1-0.4,0.2-0.7,0.4-0.9s0.4-0.3,0.6-0.3c0.2,0,0.3,0,0.5,0.1c0.2,0.1,0.3,0.2,0.4,0.4c0.1,0.2,0.2,0.3,0.3,0.5
					c0.1,0.2,0.1,0.4,0.1,0.6c0,0,0,0.1,0,0.1c0,0,0,0.1,0,0.2c-0.2,0.6-0.4,1.3-0.7,2c-0.3,0.7-0.6,1.3-1.1,1.9s-1,1.1-1.6,1.5
					c-0.6,0.4-1.3,0.6-2.2,0.6c-0.7,0-1.3-0.1-1.8-0.4c-0.5-0.3-0.9-0.7-1.2-1.1c-0.4,0.4-0.9,0.8-1.4,1.1c-0.5,0.3-1.2,0.5-1.9,0.5
					c-0.8,0-1.4-0.2-2-0.5c-0.6-0.3-1.1-0.7-1.4-1.2c-0.4-0.5-0.7-1.1-0.9-1.8c-0.2-0.7-0.3-1.5-0.3-2.3c0-1.6,0.3-3,0.8-4.3
					c0.5-1.3,1.2-2.4,2-3.3c0.9-0.9,1.8-1.6,2.9-2.1c1.1-0.5,2.2-0.7,3.4-0.7c0.5,0,1,0.1,1.3,0.4c0.3,0.3,0.5,0.7,0.5,1.2
					c0,0.3,0,0.6-0.1,0.7c-0.1,0.1-0.2,0.2-0.4,0.2c-0.2,0-0.4,0-0.5,0c-0.2,0-0.4,0-0.6,0c-0.7,0-1.5,0.2-2.2,0.5s-1.4,0.8-2,1.5
					c-0.6,0.7-1.1,1.5-1.5,2.5c-0.4,1-0.6,2.2-0.6,3.6c0,1,0.2,1.8,0.6,2.3c0.4,0.5,0.9,0.8,1.6,0.8c0.5,0,1-0.2,1.3-0.6
					c0.4-0.4,0.6-0.9,0.8-1.4v-5.9c0-0.2,0-0.3,0-0.5c0-0.1,0-0.2-0.1-0.3s0-0.2,0-0.2c0-0.1,0-0.1,0-0.2c0-0.2,0.1-0.4,0.3-0.5
					c0.2-0.1,0.4-0.2,0.7-0.2c0.6,0,1.1,0.2,1.5,0.5s0.6,0.7,0.6,1.2v6.4c0,0.2,0,0.4,0.1,0.6c0,0.2,0.1,0.4,0.2,0.6
					c0.1,0.2,0.2,0.3,0.4,0.4S109.2,133.2,109.4,133.2z"/>
				<path class="st2" d="M112.2,110.9c0-0.3,0-0.5-0.1-0.7c0-0.2-0.1-0.3-0.1-0.4s-0.1-0.2-0.1-0.2s-0.1-0.1-0.1-0.2
					c0-0.1,0-0.1,0.1-0.2s0.2-0.1,0.3-0.1c0.1,0,0.3-0.1,0.4-0.1c0.1,0,0.3,0,0.4,0c0.6,0,1.1,0.2,1.5,0.5c0.4,0.3,0.6,0.7,0.6,1.2
					v12c0.3-0.4,0.6-0.8,1-1.2c0.3-0.4,0.7-0.7,1.1-1c0.4-0.3,0.8-0.5,1.2-0.7c0.4-0.2,0.8-0.3,1.3-0.3c0.6,0,1.1,0.1,1.5,0.3
					c0.4,0.2,0.8,0.5,1.1,0.9c0.3,0.4,0.5,0.8,0.6,1.3c0.1,0.5,0.2,1,0.2,1.6c0,0.7-0.1,1.4-0.4,2.1s-0.5,1.2-0.9,1.8
					s-0.8,1-1.2,1.4c-0.4,0.4-0.8,0.8-1.2,1c0.1,0.4,0.2,0.8,0.4,1.2c0.2,0.4,0.3,0.7,0.6,1s0.5,0.5,0.8,0.7c0.3,0.2,0.6,0.3,1,0.3
					c0.4,0,0.8-0.1,1.2-0.4c0.4-0.3,0.7-0.6,1-1c0.3-0.4,0.5-0.9,0.7-1.3c0.2-0.5,0.3-0.9,0.4-1.4c0.1-0.4,0.2-0.7,0.3-0.8
					c0.2-0.2,0.3-0.3,0.5-0.3s0.4,0,0.6,0.1c0.2,0.1,0.4,0.3,0.5,0.4s0.2,0.4,0.3,0.6c0.1,0.2,0.1,0.4,0,0.6
					c-0.2,0.5-0.4,1.1-0.8,1.8s-0.7,1.3-1.2,2c-0.5,0.6-1.1,1.1-1.8,1.6c-0.7,0.4-1.5,0.6-2.3,0.6c-0.8,0-1.4-0.2-2.1-0.6
					c-0.6-0.4-1.2-0.9-1.6-1.5c-0.4-0.6-0.8-1.2-1-1.9c-0.2-0.7-0.4-1.4-0.4-2c0-0.2,0.1-0.4,0.3-0.6c0.2-0.2,0.4-0.4,0.7-0.7
					c0.3-0.2,0.6-0.5,0.9-0.8c0.3-0.3,0.6-0.6,0.9-1s0.5-0.8,0.7-1.3c0.2-0.5,0.3-1,0.3-1.6c0-0.5-0.1-0.9-0.3-1.2
					c-0.2-0.3-0.5-0.5-0.9-0.5c-0.2,0-0.5,0.1-0.8,0.3s-0.7,0.5-1,0.9c-0.4,0.4-0.7,1-1.1,1.6c-0.4,0.7-0.7,1.5-1,2.5v6.6
					c0,0.2,0,0.4,0,0.6c0,0.2,0,0.4-0.1,0.5c-0.1,0.2-0.2,0.3-0.3,0.4c-0.1,0.1-0.4,0.2-0.6,0.2c-0.2,0-0.4,0-0.6-0.1
					c-0.2,0-0.4-0.1-0.6-0.2c-0.2-0.1-0.3-0.3-0.5-0.5c-0.1-0.2-0.2-0.5-0.2-0.9V110.9z"/>
				<path class="st2" d="M134.5,123.5c0,0.7-0.1,1.4-0.4,2.2c-0.2,0.8-0.6,1.5-1.1,2.1s-1.1,1.3-1.8,1.8c-0.7,0.5-1.5,0.9-2.5,1.2
					c0.1,0.3,0.3,0.6,0.5,0.9c0.2,0.3,0.5,0.5,0.7,0.8c0.3,0.2,0.6,0.4,1,0.5c0.4,0.1,0.8,0.2,1.3,0.2c0.8,0,1.4-0.1,1.9-0.4
					c0.5-0.3,1-0.7,1.4-1.1c0.4-0.5,0.7-1,0.9-1.6c0.2-0.6,0.4-1.2,0.5-1.7c0.1-0.4,0.3-0.7,0.5-0.9s0.5-0.2,0.8-0.1
					s0.5,0.2,0.7,0.5s0.3,0.5,0.3,0.9c-0.1,0.4-0.1,0.8-0.3,1.3s-0.3,1-0.5,1.5c-0.2,0.5-0.5,1-0.9,1.5c-0.4,0.5-0.8,0.9-1.4,1.3
					s-1.2,0.7-1.9,0.9c-0.7,0.2-1.6,0.4-2.5,0.4c-0.9,0-1.7-0.2-2.5-0.5c-0.8-0.3-1.5-0.8-2.2-1.5s-1.1-1.4-1.5-2.4
					c-0.4-0.9-0.6-2-0.6-3.2c0-1.2,0.2-2.3,0.5-3.4c0.3-1,0.8-2,1.3-2.7c0.6-0.8,1.2-1.4,1.9-1.8s1.4-0.6,2.2-0.6
					c0.5,0,1,0.1,1.5,0.3c0.4,0.2,0.8,0.5,1.1,0.8s0.5,0.8,0.7,1.2C134.4,122.3,134.5,122.9,134.5,123.5z M128.3,128
					c0,0.1,0,0.2,0,0.3c0,0.1,0,0.2,0,0.4c0.5-0.2,0.9-0.5,1.3-0.9s0.7-0.8,1-1.2c0.3-0.5,0.5-0.9,0.6-1.5c0.2-0.5,0.2-1.1,0.2-1.7
					c0-0.4-0.1-0.8-0.2-1c-0.1-0.2-0.3-0.4-0.6-0.4c-0.3,0-0.6,0.1-0.8,0.3c-0.2,0.2-0.5,0.5-0.6,0.8s-0.3,0.7-0.5,1.2
					c-0.1,0.4-0.2,0.9-0.3,1.3c-0.1,0.4-0.1,0.9-0.2,1.3C128.3,127.4,128.3,127.7,128.3,128z"/>
			</g>
		</g>
	</g>
	<g>
		<path class="st3" d="M177.7,71.3l-4.5,19.3c0-0.1-0.1-0.2-0.1-0.4c-0.1-0.4-0.5-0.7-1-0.5c-0.4,0.1-0.7,0.6-0.6,1
			c0.1,0.3,0.2,0.6,0.3,0.9L157.1,96l-13.4,29.8h0l-2.6,5.7c-0.5,1.1,0.4,1.7,1.3,1.1l31.4-23l1.1-15.2c0.2,0,0.4,0.1,0.6,0.1
			c0.4,0,0.9-0.3,0.9-0.8c0.1-0.5-0.2-0.8-0.7-0.9c-0.1,0-0.1,0-0.2,0l18.2-7.7C180.8,84,188.3,70.8,177.7,71.3z"/>
		<g>
			<path class="st4" d="M174.3,67l-4.6,20l-15.9,4.6l-16,35.5c-0.5,1.1,0.4,1.7,1.3,1.1l31.4-23l1.2-16.5l18.8-7.9
				C177.4,79.7,184.9,66.5,174.3,67z"/>
			<path class="st5" d="M169.4,88.6c1.7-4,2.1-8.9,3.8-8.9C174.9,79.7,171.3,84.7,169.4,88.6z"/>
			<path class="st5" d="M170.5,89.3c3.6-2.4,7.3-6.8,8-5.3C179.1,85.4,174.1,87.2,170.5,89.3z"/>
			<path class="st5" d="M170,88.7c2.8-3.5,6.1-9.8,7.4-9C178.7,80.5,173,85.5,170,88.7z"/>
			<path class="st6" d="M168.1,86.5c-0.1-0.4,0.2-0.9,0.6-1c0.4-0.1,0.9,0.1,1,0.5c0.2,0.8,0.5,1.4,0.9,1.8c0.4,0.4,1,0.6,1.9,0.7
				c0.4,0,0.7,0.4,0.7,0.9c-0.1,0.5-0.5,0.8-0.9,0.8c-1.2-0.1-2.1-0.4-2.7-1C168.8,88.4,168.4,87.6,168.1,86.5z"/>
			<path class="st5" d="M140.3,121.5l-2.6,5.7c-0.5,1.1,0.4,1.7,1.3,1.1l4.9-3.6c-0.6-0.7-1.2-1.4-1.9-2
				C141.5,122.2,140.9,121.8,140.3,121.5z"/>
			<path class="st5" d="M168.8,88.1c-5.2,2.7-12.5,3.5-11.4,6.2C158.5,97,164,91.3,168.8,88.1z"/>
			<path class="st5" d="M170.6,89.8c-1.5,5.6-5.9,11.6-3.2,12.6C170.2,103.4,169.7,95.5,170.6,89.8z"/>
			<path class="st5" d="M169.5,89.1c-3.7,4.5-11.3,9.7-9.3,11.7C162.2,102.9,166.3,93.9,169.5,89.1z"/>
		</g>
	</g>
</g>
</svg>
