<?xml version="1.0" encoding="utf-8"?>
<!-- Generator: Adobe Illustrator 26.0.2, SVG Export Plug-In . SVG Version: 6.00 Build 0)  -->
<svg version="1.1" id="Layer_1" xmlns="http://www.w3.org/2000/svg" xmlns:xlink="http://www.w3.org/1999/xlink" x="0px" y="0px"
	 viewBox="0 0 169.2 165.7" style="enable-background:new 0 0 169.2 165.7;" xml:space="preserve">
<style type="text/css">
	.st0{fill:#FFFFFF;stroke:#F48A8F;stroke-width:4;stroke-miterlimit:10;}
	.st1{fill:#FCB13B;}
	.st2{opacity:0.14;fill:#F04D54;}
	.st3{fill:#FFFFFF;}
	.st4{opacity:0.2;fill-rule:evenodd;clip-rule:evenodd;fill:#010101;}
	.st5{fill-rule:evenodd;clip-rule:evenodd;fill:#F8F2D0;}
	.st6{fill-rule:evenodd;clip-rule:evenodd;fill:#EB9722;}
	.st7{fill:#D7747E;}
</style>
<g>
	<path class="st0" d="M6.8,74.3l-0.7,0.5C3.5,76.7,2,79.7,2,82.9c0,3.2,1.5,6.2,4.1,8.1l0.7,0.5l-0.6,0.6c-2.1,2.4-2.9,5.7-2.2,8.8
		c0.7,3.1,2.9,5.7,5.8,6.9l0.8,0.3l-0.4,0.8c-1.5,2.8-1.6,6.2-0.2,9.1c1.4,2.9,4.1,4.9,7.2,5.5l0.9,0.2l-0.2,0.8
		c-0.9,3.1-0.2,6.4,1.8,8.9c2,2.5,5.1,3.9,8.3,3.7l0.9,0l0,0.9c-0.2,3.2,1.2,6.3,3.7,8.3c2.5,2,5.8,2.7,8.9,1.8l0.8-0.2l0.2,0.9
		c0.6,3.1,2.6,5.8,5.5,7.2c2.9,1.4,6.3,1.3,9.1-0.2l0.8-0.4l0.3,0.8c1.2,2.9,3.8,5.1,6.9,5.8c3.1,0.7,6.4-0.1,8.8-2.2l0.6-0.6
		l0.5,0.7c1.9,2.6,4.9,4.1,8.1,4.1c3.2,0,6.2-1.5,8.1-4.1l0.5-0.7l0.6,0.6c2.4,2.1,5.7,2.9,8.8,2.2c3.1-0.7,5.7-2.9,6.9-5.8l0.3-0.8
		l0.8,0.4c2.8,1.5,6.2,1.6,9.1,0.2c2.9-1.4,4.9-4.1,5.5-7.2l0.1-0.9l0.8,0.2c3.1,0.9,6.4,0.2,8.9-1.8c2.5-2,3.9-5.1,3.7-8.3l0-0.9
		l0.9,0c3.2,0.2,6.3-1.2,8.3-3.7c2-2.5,2.7-5.8,1.8-8.9l-0.2-0.8l0.9-0.2c3.1-0.6,5.8-2.6,7.2-5.5c1.4-2.9,1.3-6.3-0.2-9.1l-0.4-0.8
		l0.8-0.3c2.9-1.2,5.1-3.8,5.8-6.9c0.7-3.1-0.1-6.4-2.2-8.8l-0.6-0.6l0.7-0.5c2.6-1.9,4.1-4.9,4.1-8.1c0-3.2-1.5-6.2-4.1-8.1
		l-0.7-0.5l0.6-0.6c2.1-2.4,2.9-5.7,2.2-8.8c-0.7-3.1-2.9-5.7-5.8-6.9l-0.8-0.3l0.4-0.8c1.5-2.8,1.6-6.2,0.2-9.1
		c-1.4-2.9-4.1-4.9-7.2-5.5l-0.9-0.2l0.2-0.8c0.9-3.1,0.2-6.4-1.8-8.9c-2-2.5-5.1-3.9-8.3-3.7l-0.9,0l0-0.9c0.2-3.2-1.2-6.3-3.7-8.3
		c-2.5-2-5.8-2.7-8.9-1.8l-0.8,0.2l-0.1-0.9c-0.6-3.1-2.6-5.8-5.5-7.2c-2.9-1.4-6.3-1.3-9.1,0.2l-0.8,0.4l-0.3-0.8
		c-1.2-2.9-3.8-5.1-6.9-5.8c-3.1-0.7-6.4,0.1-8.8,2.2l-0.6,0.6l-0.5-0.7C89.1,3.5,86.1,2,82.9,2c-3.2,0-6.2,1.5-8.1,4.1l-0.5,0.7
		l-0.6-0.6C71.3,4.1,68,3.3,64.9,4c-3.1,0.7-5.7,2.9-6.9,5.8l-0.3,0.8l-0.8-0.4C54,8.7,50.7,8.6,47.8,10c-2.9,1.4-4.9,4.1-5.5,7.2
		l-0.2,0.9l-0.8-0.2c-3.1-0.9-6.4-0.2-8.9,1.8c-2.5,2-3.9,5.1-3.7,8.3l0,0.9l-0.9,0c-3.2-0.2-6.3,1.2-8.3,3.7
		c-2,2.5-2.7,5.8-1.8,8.9l0.2,0.8l-0.9,0.2c-3.1,0.6-5.8,2.6-7.2,5.5c-1.4,2.9-1.3,6.3,0.2,9.1l0.4,0.8l-0.8,0.3
		c-2.9,1.2-5.1,3.8-5.8,6.9c-0.7,3.1,0.1,6.4,2.2,8.8L6.8,74.3z"/>
	<g>
		<g>
			<g>
				<g>
					<path class="st1" d="M11.6,74.8l-0.7,0.5c-2.4,1.7-3.9,4.6-3.9,7.6c0,3,1.4,5.8,3.9,7.6l0.7,0.5l-0.5,0.6
						c-2,2.2-2.8,5.3-2.1,8.2c0.7,2.9,2.7,5.3,5.5,6.5l0.7,0.3l-0.4,0.7c-1.4,2.6-1.5,5.8-0.2,8.5c1.3,2.7,3.8,4.6,6.8,5.1l0.8,0.1
						l-0.2,0.8c-0.8,2.9-0.2,6,1.7,8.3c1.9,2.3,4.8,3.6,7.7,3.5l0.8,0l0,0.8c-0.1,3,1.2,5.9,3.5,7.7c2.3,1.9,5.4,2.5,8.3,1.7
						l0.8-0.2l0.1,0.8c0.5,3,2.4,5.5,5.1,6.8c2.7,1.3,5.9,1.2,8.5-0.2l0.7-0.4l0.3,0.7c1.2,2.8,3.6,4.8,6.5,5.5
						c2.9,0.7,6-0.1,8.2-2.1l0.6-0.5l0.5,0.7c1.7,2.4,4.6,3.9,7.6,3.9c3,0,5.8-1.4,7.6-3.9l0.5-0.7l0.6,0.5c2.2,2,5.3,2.8,8.2,2.1
						c2.9-0.7,5.3-2.7,6.5-5.5l0.3-0.7l0.7,0.4c2.6,1.4,5.8,1.5,8.5,0.2c2.7-1.3,4.6-3.8,5.1-6.8l0.1-0.8l0.8,0.2
						c2.9,0.8,6,0.2,8.3-1.7c2.3-1.9,3.6-4.7,3.5-7.7l0-0.8l0.8,0c3,0.1,5.9-1.2,7.7-3.5c1.9-2.3,2.5-5.4,1.7-8.3l-0.2-0.8l0.8-0.1
						c3-0.5,5.5-2.4,6.8-5.1c1.3-2.7,1.2-5.9-0.2-8.5l-0.4-0.7l0.7-0.3c2.8-1.2,4.8-3.6,5.5-6.5c0.7-2.9-0.1-6-2.1-8.2l-0.5-0.6
						l0.7-0.5c2.4-1.7,3.9-4.6,3.9-7.6c0-3-1.4-5.8-3.9-7.6l-0.7-0.5l0.5-0.6c2-2.2,2.8-5.3,2.1-8.2c-0.7-2.9-2.7-5.3-5.5-6.5
						l-0.7-0.3l0.4-0.7c1.4-2.6,1.5-5.8,0.2-8.5c-1.3-2.7-3.8-4.6-6.8-5.1l-0.8-0.1l0.2-0.8c0.8-2.9,0.2-6-1.7-8.3
						c-1.9-2.3-4.8-3.6-7.7-3.5l-0.8,0l0-0.8c0.1-3-1.2-5.9-3.5-7.7c-2.3-1.9-5.4-2.5-8.3-1.7l-0.8,0.2l-0.1-0.8
						c-0.5-3-2.4-5.5-5.1-6.8c-2.7-1.3-5.9-1.2-8.5,0.2l-0.7,0.4l-0.3-0.7c-1.2-2.8-3.6-4.8-6.5-5.5c-2.9-0.7-6,0.1-8.2,2.1
						l-0.6,0.5l-0.5-0.7C88.7,8.4,85.9,7,82.9,7c-3,0-5.8,1.4-7.6,3.9l-0.5,0.7L74.2,11C72,9,68.9,8.2,66,8.9
						c-2.9,0.7-5.3,2.7-6.5,5.5l-0.3,0.7l-0.7-0.4c-2.6-1.4-5.8-1.5-8.5-0.2c-2.7,1.3-4.6,3.8-5.1,6.8l-0.1,0.8l-0.8-0.2
						c-2.9-0.8-6-0.2-8.3,1.7c-2.3,1.9-3.6,4.7-3.5,7.7l0,0.8l-0.8,0c-3-0.2-5.9,1.2-7.7,3.5c-1.9,2.3-2.5,5.4-1.7,8.3l0.2,0.8
						l-0.8,0.1c-3,0.5-5.5,2.4-6.8,5.1c-1.3,2.7-1.2,5.9,0.2,8.5l0.4,0.7l-0.7,0.3C11.7,60.6,9.6,63,9,65.9c-0.7,2.9,0.1,6,2.1,8.2
						L11.6,74.8z"/>
					<path class="st2" d="M139.4,128.6c-24.3,2.7-51.2-4.7-66.2-25C54.6,78.3,49.1,35.4,67.8,8.7c-0.6,0-1.2,0.1-1.8,0.2
						c-2.9,0.7-5.3,2.7-6.5,5.5l-0.3,0.7l-0.7-0.4c-2.6-1.4-5.8-1.5-8.5-0.2c-2.7,1.3-4.6,3.8-5.1,6.8l-0.1,0.8l-0.8-0.2
						c-2.9-0.8-6-0.2-8.3,1.7c-2.3,1.9-3.6,4.7-3.5,7.7l0,0.8l-0.8,0c-3-0.2-5.9,1.2-7.7,3.5c-1.9,2.3-2.5,5.4-1.7,8.3l0.2,0.8
						l-0.8,0.1c-3,0.5-5.5,2.4-6.8,5.1c-1.3,2.7-1.2,5.9,0.2,8.5l0.4,0.7l-0.7,0.3C11.7,60.6,9.6,63,9,65.9c-0.7,2.9,0.1,6,2.1,8.2
						l0.5,0.6l-0.7,0.5c-2.4,1.7-3.9,4.6-3.9,7.6c0,3,1.4,5.8,3.9,7.6l0.7,0.5l-0.5,0.6c-2,2.2-2.8,5.3-2.1,8.2
						c0.7,2.9,2.7,5.3,5.5,6.5l0.7,0.3l-0.4,0.7c-1.4,2.6-1.5,5.8-0.2,8.5c1.3,2.7,3.8,4.6,6.8,5.1l0.8,0.1l-0.2,0.8
						c-0.8,2.9-0.2,6,1.7,8.3c1.9,2.3,4.8,3.6,7.7,3.5l0.8,0l0,0.8c-0.1,3,1.2,5.9,3.5,7.7c2.3,1.9,5.4,2.5,8.3,1.7l0.8-0.2l0.1,0.8
						c0.5,3,2.4,5.5,5.1,6.8c2.7,1.3,5.9,1.2,8.5-0.2l0.7-0.4l0.3,0.7c1.2,2.8,3.6,4.8,6.5,5.5c2.9,0.7,6-0.1,8.2-2.1l0.6-0.5
						l0.5,0.7c1.7,2.4,4.6,3.9,7.6,3.9c3,0,5.8-1.4,7.6-3.9l0.5-0.7l0.6,0.5c2.2,2,5.3,2.8,8.2,2.1c2.9-0.7,5.3-2.7,6.5-5.5l0.3-0.7
						l0.7,0.4c2.6,1.4,5.8,1.5,8.5,0.2c2.7-1.3,4.6-3.8,5.1-6.8l0.1-0.8l0.8,0.2c2.9,0.8,6,0.2,8.3-1.7c2.3-1.9,3.6-4.7,3.5-7.7
						l0-0.8l0.8,0c3,0.1,5.9-1.2,7.7-3.5c0.5-0.6,0.9-1.3,1.2-2C142,128.3,140.7,128.4,139.4,128.6z"/>
				</g>
			</g>
			<g>
				<g>
					<path class="st2" d="M148.2,131.7c-25.9,2.9-54.6-5.1-70.6-26.7C57.7,78,51.9,32.2,71.9,3.7c-0.6,0-1.3,0.1-1.9,0.2
						c-3.1,0.7-5.7,2.9-6.9,5.8l-0.3,0.8l-0.8-0.4c-2.8-1.5-6.2-1.6-9.1-0.2c-2.9,1.4-4.9,4.1-5.5,7.2L47.2,18l-0.8-0.2
						c-3.1-0.9-6.4-0.2-8.9,1.8c-2.5,2-3.9,5.1-3.7,8.3l0,0.9l-0.9,0c-3.2-0.2-6.3,1.2-8.3,3.7c-2,2.5-2.7,5.8-1.8,8.9l0.2,0.8
						l-0.9,0.2c-3.1,0.6-5.8,2.6-7.2,5.5c-1.4,2.9-1.3,6.3,0.2,9.1l0.4,0.8l-0.8,0.3c-2.9,1.2-5.1,3.8-5.8,6.9
						c-0.7,3.1,0.1,6.4,2.2,8.8l0.6,0.6l-0.7,0.5c-2.6,1.9-4.1,4.9-4.1,8.1c0,3.2,1.5,6.2,4.1,8.1l0.7,0.5L11.3,92
						c-2.1,2.4-2.9,5.7-2.2,8.8c0.7,3.1,2.9,5.7,5.8,6.9l0.8,0.3l-0.4,0.8c-1.5,2.8-1.6,6.2-0.2,9.1c1.4,2.9,4.1,4.9,7.2,5.5
						l0.9,0.2l-0.2,0.8c-0.9,3.1-0.2,6.4,1.8,8.9c2,2.5,5.1,3.9,8.3,3.7l0.9,0l0,0.9c-0.2,3.2,1.2,6.3,3.7,8.3
						c2.5,2,5.8,2.7,8.9,1.8l0.8-0.2l0.2,0.9c0.6,3.1,2.6,5.8,5.5,7.2c2.9,1.4,6.3,1.3,9.1-0.2l0.8-0.4l0.3,0.8
						c1.2,2.9,3.8,5.1,6.9,5.8c3.1,0.7,6.4-0.1,8.8-2.2l0.6-0.6l0.5,0.7c1.9,2.6,4.9,4.1,8.1,4.1c3.2,0,6.2-1.5,8.1-4.1l0.5-0.7
						l0.6,0.6c2.4,2.1,5.7,2.9,8.8,2.2c3.1-0.7,5.7-2.9,6.9-5.8l0.3-0.8l0.8,0.4c2.8,1.5,6.2,1.6,9.1,0.2c2.9-1.4,4.9-4.1,5.5-7.2
						l0.1-0.9l0.8,0.2c3.1,0.9,6.4,0.2,8.9-1.8c2.5-2,3.9-5.1,3.7-8.3l0-0.9l0.9,0c3.2,0.2,6.3-1.2,8.3-3.7c0.5-0.7,1-1.4,1.3-2.2
						C151.1,131.3,149.7,131.5,148.2,131.7z"/>
				</g>
			</g>
			<g>
				<g>
					<path class="st3" d="M52.8,69.4c0.1,0.1,0.2,0.2,0.1,0.4c-0.1,0.2-0.2,0.3-0.4,0.5s-0.4,0.3-0.7,0.4c-0.3,0.1-0.5,0.2-0.8,0.2
						c-0.3,0-0.5-0.1-0.8-0.2c-0.3-0.1-0.5-0.4-0.7-0.7c-0.2-0.3-0.4-0.7-0.5-1.2c-0.1-0.5-0.2-1-0.2-1.7V52.3
						c0-0.6-0.1-1.1-0.2-1.4c-0.1-0.3-0.3-0.6-0.4-0.7c-0.2-0.2-0.3-0.2-0.5-0.3c-0.2,0-0.3,0-0.4,0c-0.1,0-0.3,0-0.4,0
						c-0.2,0-0.3,0.1-0.5,0.3c-0.2,0.2-0.3,0.4-0.4,0.8s-0.2,0.9-0.2,1.6V70c0,0,0.1,0,0.1,0.1c0,0,0.1,0.1,0.1,0.1
						c0,0.1-0.1,0.2-0.2,0.3c-0.1,0.1-0.3,0.2-0.4,0.3s-0.4,0.1-0.6,0.2c-0.2,0-0.4,0.1-0.6,0.1c-0.2,0-0.4,0-0.6-0.1
						c-0.2-0.1-0.2-0.2-0.2-0.5v-18c0-0.6-0.1-1.1-0.2-1.4c-0.1-0.3-0.2-0.6-0.4-0.7c-0.2-0.2-0.3-0.2-0.5-0.3c-0.2,0-0.3,0-0.4,0
						c-0.1,0-0.2,0-0.4,0c-0.2,0-0.3,0.1-0.5,0.3c-0.2,0.2-0.3,0.4-0.4,0.7c-0.1,0.3-0.2,0.8-0.2,1.4v14.3c0,1.4-0.2,2.5-0.7,3.3
						c-0.5,0.7-1.2,1.1-2.1,1.1c-0.3,0-0.6-0.1-0.7-0.2c-0.2-0.1-0.3-0.2-0.5-0.4c-0.1-0.2-0.2-0.3-0.2-0.5S36,69.5,36,69.3
						c0-0.1,0-0.1,0.1-0.1c0,0,0.1,0,0.2,0s0.2,0,0.3,0s0.2,0,0.3-0.1c0.1,0,0.2-0.1,0.3-0.3c0.1-0.1,0.2-0.3,0.3-0.6
						c0.1-0.2,0.2-0.5,0.2-0.9c0.1-0.4,0.1-0.8,0.1-1.4V52.6c0-0.9,0.1-1.7,0.4-2.4c0.2-0.6,0.5-1.2,0.9-1.6
						c0.4-0.4,0.8-0.7,1.3-0.9s1-0.3,1.4-0.3c0.1,0,0.3,0,0.5,0c0.2,0,0.5,0.1,0.8,0.2s0.6,0.2,0.8,0.4s0.6,0.4,0.8,0.7
						c0.2-0.3,0.4-0.5,0.7-0.7s0.5-0.3,0.7-0.4c0.2-0.1,0.5-0.2,0.7-0.2c0.2,0,0.4,0,0.6,0c0.5,0,1,0.1,1.5,0.3s0.9,0.5,1.3,0.9
						s0.7,0.9,0.9,1.6c0.2,0.6,0.4,1.4,0.4,2.4v14.3c0,0.3,0,0.6,0.1,0.9c0.1,0.3,0.2,0.5,0.3,0.7c0.1,0.2,0.3,0.4,0.5,0.5
						C52.4,69.2,52.6,69.3,52.8,69.4z"/>
					<path class="st3" d="M63.6,68.8c0.3,0,0.6-0.1,0.8-0.3c0.2-0.2,0.4-0.5,0.6-0.9s0.3-0.7,0.4-1.1c0.1-0.4,0.2-0.8,0.3-1.1
						c0.1-0.3,0.2-0.6,0.3-0.7c0.1-0.2,0.3-0.2,0.5-0.2c0.1,0,0.3,0,0.4,0.1s0.3,0.2,0.4,0.3c0.1,0.1,0.2,0.3,0.3,0.4
						s0.1,0.3,0.1,0.5c0,0,0,0,0,0.1c0,0,0,0.1,0,0.1c-0.1,0.5-0.3,1.1-0.6,1.7c-0.2,0.6-0.5,1.1-0.9,1.6c-0.4,0.5-0.8,0.9-1.3,1.2
						c-0.5,0.3-1.1,0.5-1.8,0.5c-0.6,0-1.1-0.1-1.5-0.4c-0.4-0.2-0.7-0.6-1-1c-0.3,0.4-0.7,0.7-1.2,0.9s-1,0.4-1.6,0.4
						c-0.6,0-1.2-0.1-1.7-0.4s-0.9-0.6-1.2-1c-0.3-0.4-0.6-0.9-0.7-1.5c-0.2-0.6-0.2-1.2-0.2-1.9c0-1.3,0.2-2.5,0.6-3.6s1-2,1.7-2.7
						c0.7-0.7,1.5-1.3,2.4-1.7c0.9-0.4,1.9-0.6,2.9-0.6c0.4,0,0.8,0.1,1.1,0.4s0.4,0.6,0.4,1c0,0.3,0,0.5-0.1,0.6
						c-0.1,0.1-0.2,0.2-0.3,0.2c-0.1,0-0.3,0-0.5,0c-0.2,0-0.3,0-0.5,0c-0.6,0-1.2,0.1-1.9,0.4s-1.2,0.7-1.7,1.2
						c-0.5,0.6-0.9,1.2-1.2,2.1s-0.5,1.8-0.5,3c0,0.8,0.2,1.5,0.5,2c0.3,0.5,0.8,0.7,1.3,0.7c0.4,0,0.8-0.2,1.1-0.5
						c0.3-0.3,0.5-0.7,0.7-1.2v-5c0-0.2,0-0.3,0-0.4c0-0.1,0-0.2,0-0.3s0-0.1,0-0.2c0-0.1,0-0.1,0-0.2c0-0.2,0.1-0.3,0.2-0.4
						s0.4-0.1,0.6-0.1c0.5,0,1,0.1,1.3,0.4c0.3,0.3,0.5,0.6,0.5,1v5.3c0,0.2,0,0.4,0.1,0.5c0,0.2,0.1,0.3,0.2,0.5s0.2,0.3,0.3,0.3
						C63.2,68.7,63.4,68.8,63.6,68.8z"/>
					<path class="st3" d="M65.9,50.2c0-0.2,0-0.4-0.1-0.6c0-0.1-0.1-0.2-0.1-0.3s-0.1-0.1-0.1-0.2c0,0-0.1-0.1-0.1-0.1
						c0-0.1,0-0.1,0.1-0.2c0.1,0,0.1-0.1,0.3-0.1c0.1,0,0.2-0.1,0.3-0.1c0.1,0,0.2,0,0.4,0c0.5,0,1,0.1,1.3,0.4
						c0.3,0.3,0.5,0.6,0.5,1v10c0.3-0.4,0.5-0.7,0.8-1c0.3-0.3,0.6-0.6,0.9-0.8c0.3-0.2,0.6-0.4,1-0.6c0.3-0.1,0.7-0.2,1.1-0.2
						c0.5,0,0.9,0.1,1.3,0.3s0.7,0.5,0.9,0.8c0.2,0.3,0.4,0.7,0.5,1.1c0.1,0.4,0.2,0.8,0.2,1.3c0,0.6-0.1,1.2-0.3,1.7
						c-0.2,0.5-0.5,1-0.8,1.5c-0.3,0.4-0.6,0.8-1,1.2c-0.4,0.3-0.7,0.6-1,0.9c0.1,0.3,0.2,0.7,0.3,1c0.1,0.3,0.3,0.6,0.5,0.9
						s0.4,0.5,0.7,0.6c0.2,0.1,0.5,0.2,0.8,0.2c0.4,0,0.7-0.1,1-0.3c0.3-0.2,0.6-0.5,0.8-0.8c0.2-0.3,0.5-0.7,0.6-1.1
						s0.3-0.8,0.4-1.1c0.1-0.3,0.2-0.6,0.3-0.7c0.1-0.1,0.3-0.2,0.4-0.2c0.2,0,0.3,0,0.5,0.1c0.2,0.1,0.3,0.2,0.4,0.4
						s0.2,0.3,0.3,0.5c0.1,0.2,0.1,0.4,0,0.5c-0.1,0.4-0.4,0.9-0.6,1.5c-0.3,0.6-0.6,1.1-1,1.6c-0.4,0.5-0.9,0.9-1.5,1.3
						c-0.6,0.4-1.2,0.5-1.9,0.5c-0.6,0-1.2-0.2-1.7-0.5s-1-0.7-1.3-1.2s-0.7-1-0.9-1.6c-0.2-0.6-0.3-1.1-0.3-1.7
						c0-0.2,0.1-0.3,0.2-0.5s0.3-0.4,0.6-0.6c0.2-0.2,0.5-0.4,0.7-0.7c0.3-0.3,0.5-0.5,0.7-0.8c0.2-0.3,0.4-0.7,0.6-1.1
						c0.1-0.4,0.2-0.8,0.2-1.3c0-0.4-0.1-0.7-0.3-1c-0.2-0.3-0.4-0.4-0.7-0.4c-0.2,0-0.4,0.1-0.7,0.2c-0.3,0.1-0.5,0.4-0.8,0.7
						c-0.3,0.3-0.6,0.8-0.9,1.4c-0.3,0.6-0.6,1.3-0.8,2.1v5.5c0,0.2,0,0.3,0,0.5c0,0.2,0,0.3-0.1,0.4c-0.1,0.1-0.1,0.2-0.3,0.3
						c-0.1,0.1-0.3,0.1-0.5,0.1c-0.2,0-0.3,0-0.5-0.1c-0.2,0-0.4-0.1-0.5-0.2c-0.2-0.1-0.3-0.2-0.4-0.4c-0.1-0.2-0.1-0.4-0.1-0.7
						V50.2z"/>
					<path class="st3" d="M84.6,60.6c0,0.6-0.1,1.2-0.3,1.8c-0.2,0.6-0.5,1.2-0.9,1.8c-0.4,0.6-0.9,1.1-1.5,1.5
						c-0.6,0.4-1.3,0.8-2.1,1c0.1,0.3,0.2,0.5,0.4,0.8c0.2,0.2,0.4,0.5,0.6,0.6c0.2,0.2,0.5,0.3,0.8,0.4c0.3,0.1,0.7,0.2,1.1,0.2
						c0.6,0,1.2-0.1,1.6-0.4c0.5-0.2,0.8-0.5,1.1-0.9c0.3-0.4,0.6-0.8,0.7-1.3c0.2-0.5,0.3-1,0.4-1.5c0.1-0.4,0.2-0.6,0.4-0.7
						c0.2-0.1,0.5-0.1,0.7-0.1c0.2,0.1,0.4,0.2,0.6,0.4c0.2,0.2,0.2,0.4,0.2,0.7c0,0.3-0.1,0.7-0.2,1.1c-0.1,0.4-0.2,0.8-0.4,1.3
						s-0.5,0.9-0.8,1.3c-0.3,0.4-0.7,0.8-1.1,1.1s-1,0.6-1.6,0.8c-0.6,0.2-1.3,0.3-2.1,0.3c-0.7,0-1.4-0.1-2.1-0.4
						c-0.7-0.3-1.3-0.7-1.8-1.2c-0.5-0.5-1-1.2-1.3-2c-0.3-0.8-0.5-1.7-0.5-2.7c0-1,0.1-2,0.4-2.8s0.7-1.6,1.1-2.3
						c0.5-0.6,1-1.1,1.6-1.5c0.6-0.4,1.2-0.5,1.8-0.5c0.5,0,0.9,0.1,1.2,0.2s0.7,0.4,0.9,0.7c0.3,0.3,0.4,0.6,0.6,1
						C84.5,59.7,84.6,60.1,84.6,60.6z M79.4,64.4c0,0.1,0,0.2,0,0.3c0,0.1,0,0.2,0,0.3c0.4-0.2,0.8-0.4,1.1-0.7
						c0.3-0.3,0.6-0.6,0.8-1c0.2-0.4,0.4-0.8,0.5-1.2s0.2-0.9,0.2-1.4c0-0.4-0.1-0.6-0.2-0.8c-0.1-0.2-0.3-0.3-0.5-0.3
						c-0.3,0-0.5,0.1-0.7,0.3c-0.2,0.2-0.4,0.4-0.5,0.7c-0.2,0.3-0.3,0.6-0.4,1c-0.1,0.4-0.2,0.7-0.2,1.1c-0.1,0.4-0.1,0.7-0.1,1
						C79.4,63.9,79.4,64.2,79.4,64.4z"/>
					<path class="st3" d="M72,88.2c0.1-0.3,0.2-0.6,0.3-0.7c0.1-0.2,0.3-0.2,0.4-0.2c0.1,0,0.3,0,0.4,0.1c0.1,0.1,0.3,0.2,0.4,0.3
						c0.1,0.1,0.2,0.3,0.3,0.4c0.1,0.2,0.1,0.3,0.1,0.5c0,0,0,0.1,0,0.1s0,0.1,0,0.2c-0.3,0.9-0.6,1.8-1,2.5
						c-0.4,0.7-0.7,1.4-1.2,1.9c-0.4,0.6-0.8,1.1-1.3,1.5c-0.4,0.4-0.9,0.9-1.3,1.2v5.6c0,0.8-0.1,1.6-0.3,2.1
						c-0.2,0.6-0.4,1.1-0.8,1.4s-0.7,0.6-1.1,0.8c-0.4,0.2-0.8,0.2-1.2,0.2c-0.5,0-0.9-0.1-1.2-0.3c-0.4-0.2-0.7-0.5-1-0.8
						c-0.3-0.3-0.5-0.7-0.6-1.2c-0.2-0.5-0.2-0.9-0.2-1.4c0-0.8,0.1-1.5,0.3-2.2s0.5-1.2,0.9-1.7c0.4-0.5,0.8-1,1.3-1.5
						c0.5-0.5,1-0.9,1.5-1.4v-4.1c-0.4,0.6-0.8,1.2-1.4,1.6c-0.5,0.4-1.1,0.6-1.8,0.6c-0.5,0-1-0.1-1.4-0.3
						c-0.4-0.2-0.8-0.5-1.1-0.9c-0.3-0.4-0.5-0.9-0.7-1.5c-0.2-0.6-0.2-1.2-0.2-1.9c0-0.8,0.1-1.7,0.2-2.6c0.1-0.9,0.3-1.6,0.4-2.3
						c0.2-0.8,0.4-1.6,0.6-2.3c0.1-0.1,0.1-0.3,0.1-0.4c0-0.1,0.1-0.3,0.2-0.4s0.2-0.2,0.4-0.3s0.5-0.1,1-0.1c0.4,0,0.7,0.1,0.8,0.2
						s0.2,0.3,0.1,0.5s-0.1,0.4-0.2,0.6c-0.1,0.2-0.2,0.4-0.2,0.5c-0.1,0.6-0.3,1.1-0.4,1.6c-0.1,0.5-0.2,1-0.3,1.5
						c-0.1,0.5-0.1,1-0.2,1.6c0,0.5-0.1,1.1-0.1,1.8c0,0.9,0.1,1.5,0.4,2c0.3,0.5,0.6,0.7,1.1,0.7c0.3,0,0.6-0.1,0.9-0.4
						c0.3-0.2,0.5-0.6,0.8-1c0.2-0.4,0.4-0.9,0.6-1.4c0.2-0.5,0.3-1.1,0.4-1.6v-5.2c0-0.3,0-0.5-0.1-0.7c0-0.1-0.1-0.3-0.1-0.4
						c0-0.2,0.1-0.3,0.2-0.4s0.4-0.1,0.6-0.1c0.5,0,1,0.1,1.3,0.4c0.3,0.3,0.5,0.6,0.5,1v11.3c0.6-0.6,1.1-1.4,1.6-2.2
						C71.3,90.3,71.7,89.3,72,88.2z M65.8,104.2c0.3,0,0.4-0.1,0.6-0.3c0.1-0.2,0.2-0.5,0.3-0.7c0-0.3,0.1-0.6,0.1-0.8s0-0.5,0-0.7
						v-3.4c-0.5,0.5-0.9,1.1-1.3,1.8c-0.3,0.7-0.5,1.5-0.5,2.4c0,0.5,0.1,0.9,0.2,1.3S65.6,104.2,65.8,104.2z"/>
					<path class="st3" d="M83.9,87.6c0-0.1,0.1-0.2,0.2-0.3c0.1-0.1,0.3-0.1,0.4-0.2s0.3,0,0.5,0s0.3,0.1,0.5,0.2
						c0.1,0.1,0.2,0.3,0.3,0.5c0.1,0.2,0,0.4,0,0.7c-0.1,0.4-0.2,0.9-0.5,1.2c-0.2,0.4-0.5,0.7-0.8,1c-0.3,0.3-0.7,0.5-1.1,0.7
						s-0.9,0.3-1.5,0.3c-0.3,0-0.6,0-0.8,0s-0.5-0.1-0.7-0.2c-0.4,0.7-0.9,1.2-1.5,1.7c-0.6,0.4-1.4,0.6-2.3,0.6
						c-0.8,0-1.5-0.2-2.1-0.5c-0.6-0.3-1.1-0.8-1.5-1.3c-0.4-0.5-0.7-1.2-0.9-1.9c-0.2-0.7-0.3-1.5-0.3-2.3c0-1.2,0.1-2.2,0.4-3.2
						c0.3-0.9,0.6-1.7,1-2.4s0.7-1.2,1.1-1.5s0.6-0.5,0.8-0.5c0.2,0,0.4,0.1,0.6,0.3c0.2,0.2,0.3,0.4,0.4,0.6
						c0.1,0.2,0.1,0.5,0.1,0.7c0,0.3-0.2,0.4-0.4,0.6c-0.1,0.2-0.3,0.4-0.4,0.7s-0.3,0.6-0.5,1c-0.2,0.4-0.3,0.9-0.4,1.4
						c-0.1,0.6-0.2,1.2-0.2,2c0,0.7,0.1,1.3,0.2,1.8c0.1,0.5,0.3,0.9,0.5,1.3s0.5,0.6,0.7,0.8c0.3,0.2,0.6,0.3,0.9,0.3
						c0.5,0,0.8-0.1,1.1-0.3c0.3-0.2,0.6-0.5,0.8-0.9c-0.8-0.7-1.3-1.5-1.7-2.5c-0.4-1-0.6-2.1-0.6-3.2c0-0.5,0.1-1,0.2-1.4
						c0.1-0.5,0.3-0.9,0.5-1.2c0.2-0.3,0.5-0.6,0.8-0.8c0.3-0.2,0.7-0.3,1.1-0.3c0.4,0,0.7,0.1,1.1,0.4c0.3,0.3,0.6,0.6,0.9,1.1
						c0.3,0.5,0.4,1.1,0.6,1.7s0.2,1.4,0.2,2.2c0,0.6,0,1.2-0.1,1.8s-0.2,1.2-0.3,1.7c0.1,0,0.2,0.1,0.3,0.1c0.1,0,0.2,0,0.3,0
						c0.3,0,0.7-0.1,0.9-0.2c0.3-0.1,0.5-0.3,0.7-0.5c0.2-0.2,0.3-0.5,0.5-0.7C83.8,88.2,83.9,87.9,83.9,87.6z M77.8,84.6
						c0,0.7,0.1,1.4,0.3,2.1c0.2,0.7,0.5,1.2,0.9,1.7c0.1-0.5,0.1-1,0.1-1.5c0-0.5,0-1.1,0-1.5c0-0.5-0.1-0.9-0.1-1.2
						c-0.1-0.3-0.1-0.6-0.2-0.8c-0.1-0.2-0.2-0.3-0.4-0.3C78,83.1,77.8,83.6,77.8,84.6z"/>
					<path class="st3" d="M92.8,93.8c-0.4,0-0.7-0.1-1-0.2s-0.6-0.3-0.8-0.5s-0.4-0.4-0.6-0.7c-0.1-0.3-0.2-0.6-0.3-0.9
						c-0.4,0.7-0.8,1.2-1.4,1.7c-0.5,0.4-1.1,0.6-1.9,0.6c-0.5,0-1-0.1-1.4-0.3c-0.4-0.2-0.8-0.5-1.1-0.9c-0.3-0.4-0.5-0.9-0.7-1.5
						c-0.2-0.6-0.2-1.2-0.2-1.9c0-0.8,0.1-1.7,0.2-2.6c0.1-0.9,0.3-1.6,0.4-2.3c0.2-0.8,0.4-1.6,0.6-2.3c0.1-0.1,0.1-0.3,0.1-0.4
						c0-0.1,0.1-0.3,0.2-0.4s0.2-0.2,0.4-0.3s0.5-0.1,1-0.1c0.4,0,0.7,0.1,0.8,0.2s0.2,0.3,0.1,0.5s-0.1,0.4-0.2,0.6
						c-0.1,0.2-0.2,0.4-0.2,0.5c-0.1,0.6-0.3,1.1-0.4,1.6c-0.1,0.5-0.2,1-0.3,1.5c-0.1,0.5-0.1,1-0.2,1.6c0,0.5-0.1,1.1-0.1,1.8
						c0,0.9,0.1,1.5,0.4,2c0.3,0.5,0.6,0.7,1.1,0.7c0.3,0,0.6-0.1,0.9-0.4c0.3-0.2,0.5-0.6,0.8-1c0.2-0.4,0.4-0.9,0.6-1.4
						c0.2-0.5,0.3-1.1,0.4-1.6v-5.2c0-0.2,0-0.4-0.1-0.6s-0.1-0.2-0.1-0.3c0-0.1-0.1-0.1-0.1-0.2c0,0-0.1-0.1-0.1-0.2
						c0-0.1,0-0.1,0.1-0.1s0.1-0.1,0.3-0.1c0.1,0,0.2-0.1,0.3-0.1c0.1,0,0.2,0,0.4,0c0.5,0,1,0.1,1.3,0.4c0.3,0.3,0.5,0.6,0.5,1v8.2
						c0,0.1,0,0.2,0,0.4c0,0.2,0,0.3,0.1,0.5c0.1,0.2,0.1,0.3,0.3,0.4c0.1,0.1,0.3,0.2,0.5,0.2c0.3,0,0.6-0.1,0.8-0.3
						c0.2-0.2,0.4-0.5,0.6-0.9s0.3-0.7,0.4-1.1s0.2-0.8,0.3-1.1c0.1-0.3,0.2-0.6,0.3-0.7c0.1-0.2,0.3-0.2,0.5-0.2
						c0.1,0,0.3,0,0.4,0.1c0.1,0.1,0.3,0.2,0.4,0.3c0.1,0.1,0.2,0.3,0.3,0.4c0.1,0.2,0.1,0.3,0.1,0.5c0,0,0,0,0,0.1c0,0,0,0.1,0,0.1
						c-0.1,0.5-0.3,1.1-0.6,1.7c-0.2,0.6-0.5,1.1-0.9,1.6c-0.4,0.5-0.8,0.9-1.3,1.2C94.1,93.7,93.5,93.8,92.8,93.8z"/>
					<path class="st3" d="M102.7,93.8c-0.4,0-0.8-0.1-1.2-0.2c-0.4-0.1-0.7-0.3-1.1-0.6c-0.3-0.3-0.6-0.7-0.8-1.1
						c-0.2-0.5-0.3-1.1-0.3-1.8c0-1,0.1-2.1,0.4-3.3c0.3-1.2,0.7-2.4,1.2-3.8h-2.5h-0.4c0,0.3,0,0.7-0.1,1.2c0,0.5-0.1,1-0.1,1.5
						c-0.1,0.5-0.1,1.1-0.2,1.7s-0.2,1.1-0.4,1.5c-0.1,0.3-0.3,0.5-0.5,0.6c-0.2,0.1-0.4,0-0.7-0.1c-0.2-0.1-0.4-0.3-0.5-0.6
						c-0.1-0.3-0.2-0.5-0.1-0.8c0.1-0.3,0.2-0.7,0.2-1.2c0.1-0.5,0.1-1,0.1-1.5c0-0.5,0.1-1,0.1-1.6c0-0.5,0-1,0-1.4
						c-0.4-0.2-0.7-0.5-1-0.8c-0.3-0.3-0.4-0.7-0.4-1.2c0-0.2,0-0.4,0.1-0.6c0.1-0.2,0.2-0.3,0.4-0.5c0.1-0.1,0.3-0.2,0.5-0.3
						c0.2-0.1,0.4-0.1,0.6-0.1c0.2,0,0.4,0,0.6,0.1c0.2,0.1,0.4,0.1,0.6,0.3s0.3,0.3,0.5,0.5c0.1,0.2,0.3,0.5,0.4,0.8
						c0.3,0,0.5,0.1,0.7,0.1c0.2,0,0.3,0,0.5,0c0.1,0,0.2,0,0.3,0s0.2,0,0.3,0h1.7c0.1,0,0.2,0.1,0.4,0.2c0.2,0.1,0.4,0.3,0.5,0.4
						c0.2,0.2,0.3,0.4,0.4,0.6c0.1,0.2,0.2,0.4,0.1,0.6c0,0.1,0,0.2-0.1,0.5c-0.1,0.2-0.2,0.5-0.3,0.9c-0.1,0.4-0.2,0.8-0.3,1.3
						c-0.1,0.5-0.2,1-0.3,1.5c-0.1,0.5-0.2,1.1-0.3,1.6c-0.1,0.6-0.1,1.1-0.1,1.6c0,0.2,0,0.4,0.1,0.6c0.1,0.2,0.1,0.4,0.2,0.6
						c0.1,0.2,0.2,0.3,0.4,0.4c0.2,0.1,0.4,0.1,0.6,0.1c0.4,0,0.7-0.1,0.9-0.3c0.3-0.2,0.5-0.5,0.7-0.9c0.2-0.3,0.3-0.7,0.4-1.1
						c0.1-0.4,0.2-0.8,0.3-1.1c0.1-0.3,0.2-0.6,0.3-0.7c0.1-0.2,0.3-0.2,0.5-0.2c0.1,0,0.3,0,0.4,0.1c0.1,0.1,0.3,0.2,0.4,0.3
						c0.1,0.1,0.2,0.3,0.3,0.4s0.1,0.3,0.1,0.5c0,0.1,0,0.1,0,0.1c0,0,0,0.1,0,0.1c-0.1,0.5-0.3,1.1-0.6,1.7
						c-0.2,0.6-0.5,1.1-0.9,1.6c-0.4,0.5-0.8,0.9-1.3,1.2C103.9,93.7,103.3,93.8,102.7,93.8z"/>
					<path class="st3" d="M85,120.5c-0.7,0-1.4-0.1-2.1-0.4c-0.7-0.3-1.3-0.6-1.8-1.2c-0.5-0.5-0.9-1.1-1.2-1.9
						c-0.3-0.8-0.5-1.6-0.5-2.6c0-0.9,0.1-1.8,0.4-2.7c0.3-0.9,0.6-1.7,1.1-2.4s1-1.3,1.7-1.7s1.3-0.6,2.1-0.6c0.6,0,1,0.1,1.4,0.3
						s0.7,0.5,0.9,0.8c0.2,0.3,0.4,0.7,0.5,1c0.1,0.4,0.2,0.7,0.2,1c0,0.2-0.1,0.4-0.2,0.6c-0.1,0.2-0.2,0.3-0.4,0.4
						c-0.2,0.1-0.3,0.2-0.5,0.3s-0.4,0.1-0.5,0.1c-0.1,0-0.3-0.1-0.4-0.2c-0.1-0.1-0.1-0.2-0.1-0.4c0-0.1-0.1-0.3-0.1-0.5
						c0-0.2-0.1-0.4-0.2-0.6c-0.1-0.2-0.2-0.3-0.4-0.5s-0.4-0.2-0.6-0.2c-0.3,0-0.6,0.1-0.9,0.4c-0.3,0.3-0.5,0.7-0.7,1.1
						c-0.2,0.5-0.4,1-0.5,1.7c-0.1,0.6-0.2,1.3-0.2,2c0,0.6,0.1,1.2,0.2,1.7c0.2,0.5,0.4,0.9,0.7,1.2c0.3,0.3,0.6,0.6,1,0.8
						s0.8,0.3,1.3,0.3c0.6,0,1.2-0.1,1.6-0.4c0.5-0.2,0.9-0.5,1.2-0.9c0.3-0.4,0.6-0.8,0.8-1.3c0.2-0.5,0.3-1,0.4-1.5
						c0.1-0.4,0.2-0.6,0.4-0.7c0.2-0.1,0.5-0.1,0.7-0.1c0.2,0.1,0.4,0.2,0.6,0.4s0.2,0.4,0.2,0.7c0,0.3-0.1,0.7-0.2,1.1
						c-0.1,0.4-0.3,0.8-0.5,1.3s-0.5,0.9-0.8,1.3s-0.7,0.8-1.2,1.1c-0.5,0.3-1,0.6-1.6,0.8C86.5,120.4,85.8,120.5,85,120.5z"/>
					<path class="st3" d="M98.6,118.3c0.3,0,0.6-0.1,0.8-0.3c0.2-0.2,0.4-0.5,0.6-0.9s0.3-0.7,0.4-1.1s0.2-0.8,0.3-1.1
						c0.1-0.3,0.2-0.6,0.3-0.7c0.1-0.2,0.3-0.2,0.5-0.2c0.1,0,0.3,0,0.4,0.1c0.1,0.1,0.3,0.2,0.4,0.3s0.2,0.3,0.3,0.4
						c0.1,0.2,0.1,0.3,0.1,0.5c0,0,0,0,0,0.1s0,0.1,0,0.1c-0.1,0.5-0.3,1.1-0.6,1.7c-0.2,0.6-0.5,1.1-0.9,1.6
						c-0.4,0.5-0.8,0.9-1.3,1.2c-0.5,0.3-1.1,0.5-1.8,0.5c-0.6,0-1.1-0.1-1.5-0.4s-0.7-0.6-1-1c-0.3,0.4-0.7,0.7-1.2,0.9
						c-0.5,0.3-1,0.4-1.6,0.4c-0.6,0-1.2-0.1-1.7-0.4c-0.5-0.3-0.9-0.6-1.2-1c-0.3-0.4-0.6-0.9-0.7-1.5c-0.2-0.6-0.2-1.2-0.2-1.9
						c0-1.3,0.2-2.5,0.6-3.6c0.4-1.1,1-2,1.7-2.7c0.7-0.7,1.5-1.3,2.4-1.7c0.9-0.4,1.9-0.6,2.9-0.6c0.4,0,0.8,0.1,1.1,0.4
						s0.4,0.6,0.4,1c0,0.3,0,0.5-0.1,0.6c-0.1,0.1-0.2,0.2-0.3,0.2c-0.1,0-0.3,0-0.5,0c-0.2,0-0.3,0-0.5,0c-0.6,0-1.2,0.1-1.9,0.4
						c-0.6,0.3-1.2,0.7-1.7,1.2c-0.5,0.5-0.9,1.2-1.2,2.1c-0.3,0.8-0.5,1.8-0.5,3c0,0.8,0.2,1.5,0.5,2c0.3,0.5,0.8,0.7,1.3,0.7
						c0.4,0,0.8-0.2,1.1-0.5c0.3-0.3,0.5-0.7,0.7-1.2v-5c0-0.2,0-0.3,0-0.4c0-0.1,0-0.2,0-0.3s0-0.1,0-0.2s0-0.1,0-0.2
						c0-0.2,0.1-0.3,0.2-0.4c0.2-0.1,0.4-0.1,0.6-0.1c0.5,0,1,0.1,1.3,0.4s0.5,0.6,0.5,1v5.3c0,0.2,0,0.4,0.1,0.5s0.1,0.3,0.2,0.5
						c0.1,0.1,0.2,0.3,0.3,0.3C98.2,118.3,98.4,118.3,98.6,118.3z"/>
					<path class="st3" d="M100.8,99.7c0-0.2,0-0.4-0.1-0.5c0-0.1-0.1-0.2-0.1-0.3c0-0.1-0.1-0.1-0.1-0.2c0,0-0.1-0.1-0.1-0.1
						c0-0.1,0-0.1,0.1-0.2c0.1,0,0.1-0.1,0.3-0.1c0.1,0,0.2-0.1,0.3-0.1c0.1,0,0.2,0,0.4,0c0.5,0,1,0.1,1.3,0.4
						c0.3,0.3,0.5,0.6,0.5,1v10c0.3-0.4,0.5-0.7,0.8-1s0.6-0.6,0.9-0.8s0.6-0.4,1-0.6c0.3-0.1,0.7-0.2,1.1-0.2
						c0.5,0,0.9,0.1,1.3,0.3c0.4,0.2,0.7,0.5,0.9,0.8c0.2,0.3,0.4,0.7,0.5,1.1c0.1,0.4,0.2,0.8,0.2,1.3c0,0.6-0.1,1.2-0.3,1.7
						c-0.2,0.5-0.5,1-0.8,1.5c-0.3,0.4-0.6,0.8-1,1.2s-0.7,0.6-1,0.9c0.1,0.3,0.2,0.7,0.3,1c0.1,0.3,0.3,0.6,0.5,0.9
						c0.2,0.3,0.4,0.5,0.7,0.6c0.2,0.1,0.5,0.2,0.8,0.2c0.4,0,0.7-0.1,1-0.3c0.3-0.2,0.6-0.5,0.8-0.8c0.2-0.3,0.5-0.7,0.6-1.1
						c0.2-0.4,0.3-0.8,0.4-1.1c0.1-0.3,0.2-0.6,0.3-0.7s0.3-0.2,0.4-0.2c0.2,0,0.3,0,0.5,0.1c0.2,0.1,0.3,0.2,0.4,0.4
						c0.1,0.2,0.2,0.3,0.3,0.5s0.1,0.4,0,0.5c-0.1,0.4-0.4,0.9-0.6,1.5s-0.6,1.1-1,1.6c-0.4,0.5-0.9,0.9-1.5,1.3
						c-0.6,0.4-1.2,0.5-1.9,0.5c-0.6,0-1.2-0.2-1.7-0.5c-0.5-0.3-1-0.7-1.3-1.2c-0.4-0.5-0.7-1-0.9-1.6c-0.2-0.6-0.3-1.1-0.3-1.7
						c0-0.2,0.1-0.3,0.2-0.5s0.3-0.4,0.6-0.6c0.2-0.2,0.5-0.4,0.7-0.7c0.3-0.3,0.5-0.5,0.7-0.8c0.2-0.3,0.4-0.7,0.6-1.1
						c0.1-0.4,0.2-0.8,0.2-1.3c0-0.4-0.1-0.7-0.3-1c-0.2-0.3-0.4-0.4-0.7-0.4c-0.2,0-0.4,0.1-0.7,0.2c-0.3,0.1-0.5,0.4-0.8,0.7
						c-0.3,0.3-0.6,0.8-0.9,1.4s-0.6,1.3-0.8,2.1v5.5c0,0.2,0,0.3,0,0.5s0,0.3-0.1,0.4c-0.1,0.1-0.1,0.2-0.3,0.3
						c-0.1,0.1-0.3,0.1-0.5,0.1c-0.2,0-0.3,0-0.5-0.1c-0.2,0-0.4-0.1-0.5-0.2c-0.2-0.1-0.3-0.2-0.4-0.4s-0.1-0.4-0.1-0.7V99.7z"/>
					<path class="st3" d="M119.5,110.2c0,0.6-0.1,1.2-0.3,1.8s-0.5,1.2-0.9,1.8c-0.4,0.6-0.9,1.1-1.5,1.5c-0.6,0.4-1.3,0.8-2.1,1
						c0.1,0.3,0.2,0.5,0.4,0.8s0.4,0.5,0.6,0.6c0.2,0.2,0.5,0.3,0.8,0.4c0.3,0.1,0.7,0.2,1.1,0.2c0.6,0,1.2-0.1,1.6-0.4
						c0.5-0.2,0.8-0.5,1.1-0.9s0.6-0.8,0.7-1.3c0.2-0.5,0.3-1,0.4-1.5c0.1-0.4,0.2-0.6,0.4-0.7c0.2-0.1,0.5-0.1,0.7-0.1
						c0.2,0.1,0.4,0.2,0.6,0.4s0.2,0.4,0.2,0.7c0,0.3-0.1,0.7-0.2,1.1c-0.1,0.4-0.2,0.8-0.4,1.3s-0.5,0.9-0.8,1.3
						c-0.3,0.4-0.7,0.8-1.1,1.1c-0.5,0.3-1,0.6-1.6,0.8c-0.6,0.2-1.3,0.3-2.1,0.3c-0.7,0-1.4-0.1-2.1-0.4s-1.3-0.7-1.8-1.2
						c-0.5-0.5-1-1.2-1.3-2s-0.5-1.7-0.5-2.7c0-1,0.1-2,0.4-2.8c0.3-0.9,0.7-1.6,1.1-2.3c0.5-0.6,1-1.1,1.6-1.5s1.2-0.5,1.8-0.5
						c0.5,0,0.9,0.1,1.2,0.2s0.7,0.4,0.9,0.7c0.3,0.3,0.4,0.6,0.6,1C119.5,109.3,119.5,109.7,119.5,110.2z M114.3,114
						c0,0.1,0,0.2,0,0.3c0,0.1,0,0.2,0,0.3c0.4-0.2,0.8-0.4,1.1-0.7c0.3-0.3,0.6-0.6,0.8-1s0.4-0.8,0.5-1.2c0.1-0.4,0.2-0.9,0.2-1.4
						c0-0.4-0.1-0.6-0.2-0.8c-0.1-0.2-0.3-0.3-0.5-0.3c-0.3,0-0.5,0.1-0.7,0.3c-0.2,0.2-0.4,0.4-0.5,0.7c-0.2,0.3-0.3,0.6-0.4,1
						c-0.1,0.4-0.2,0.7-0.2,1.1c-0.1,0.4-0.1,0.7-0.1,1C114.3,113.5,114.3,113.8,114.3,114z"/>
				</g>
			</g>
		</g>
		<g>
			<path class="st4" d="M155.6,66.6l-3.7,16.2c0-0.1-0.1-0.2-0.1-0.3c-0.1-0.4-0.4-0.5-0.8-0.4c-0.4,0.1-0.6,0.5-0.5,0.9
				c0.1,0.3,0.1,0.5,0.2,0.7l-12.3,3.6l-11.2,24.9h0l-2.1,4.7c-0.4,0.9,0.3,1.5,1.1,0.9l26.2-19.2l0.9-12.7c0.2,0,0.3,0,0.5,0.1
				c0.4,0,0.7-0.3,0.8-0.7c0.1-0.4-0.2-0.7-0.6-0.7c0,0-0.1,0-0.1,0l15.2-6.4C158.2,77.2,164.5,66.2,155.6,66.6z"/>
			<g>
				<path class="st5" d="M152.8,63l-3.9,16.7l-13.3,3.9l-13.4,29.7c-0.4,0.9,0.3,1.5,1.1,0.9L149.6,95l1-13.8l15.8-6.6
					C155.4,73.6,161.6,62.6,152.8,63z"/>
				<path class="st6" d="M148.7,81.1c1.4-3.3,1.8-7.4,3.2-7.4C153.3,73.6,150.3,77.8,148.7,81.1z"/>
				<path class="st6" d="M149.6,81.6c3-2,6.1-5.7,6.7-4.4C156.9,78.4,152.6,79.9,149.6,81.6z"/>
				<path class="st6" d="M149.2,81.2c2.4-3,5.1-8.2,6.2-7.5C156.5,74.3,151.8,78.4,149.2,81.2z"/>
				<path class="st7" d="M147.7,79.3c-0.1-0.4,0.1-0.8,0.5-0.9c0.4-0.1,0.7,0.1,0.8,0.4c0.1,0.6,0.4,1.2,0.8,1.5
					c0.4,0.3,0.9,0.5,1.5,0.6c0.4,0,0.6,0.3,0.6,0.7c-0.1,0.4-0.4,0.7-0.8,0.7c-1,0-1.7-0.3-2.3-0.9
					C148.2,80.9,147.9,80.2,147.7,79.3z"/>
				<path class="st6" d="M124.4,108.6l-2.1,4.7c-0.4,0.9,0.3,1.5,1.1,0.9l4.1-3c-0.5-0.6-1-1.1-1.6-1.6
					C125.4,109.2,124.9,108.9,124.4,108.6z"/>
				<path class="st6" d="M148.2,80.7c-4.3,2.2-10.4,2.9-9.5,5.2C139.6,88.1,144.2,83.3,148.2,80.7z"/>
				<path class="st6" d="M149.7,82.1c-1.3,4.7-4.9,9.7-2.6,10.5C149.4,93.4,149,86.8,149.7,82.1z"/>
				<path class="st6" d="M148.8,81.5c-3.1,3.8-9.5,8.1-7.8,9.8C142.7,93,146.1,85.5,148.8,81.5z"/>
			</g>
		</g>
	</g>
</g>
<g>
</g>
<g>
</g>
<g>
</g>
<g>
</g>
<g>
</g>
<g>
</g>
</svg>
